<svg width="312" height="227" viewBox="0 0 312 227" fill="none" xmlns="http://www.w3.org/2000/svg">
<path d="M198.822 170.175V224.895H62.2387C46.6769 224.895 34.0156 212.621 34.0156 197.535C34.0156 182.449 46.6769 170.175 62.2387 170.175H198.822Z" fill="#F2F2F2"/>
<path d="M202.177 224.474C202.177 225.033 201.956 225.568 201.563 225.962C201.169 226.357 200.636 226.579 200.08 226.579H59.806C52.1874 226.579 44.8809 223.541 39.4937 218.134C34.1066 212.727 31.0801 205.393 31.0801 197.746C31.0801 190.098 34.1066 182.765 39.4937 177.357C44.8809 171.95 52.1874 168.912 59.806 168.912H200.08C200.636 168.912 201.17 169.134 201.563 169.529C201.956 169.923 202.177 170.459 202.177 171.017C202.177 171.575 201.956 172.11 201.563 172.505C201.17 172.9 200.636 173.121 200.08 173.121H59.806C53.2996 173.121 47.0597 175.716 42.459 180.334C37.8583 184.952 35.2737 191.215 35.2737 197.746C35.2737 204.276 37.8583 210.54 42.459 215.158C47.0597 219.775 53.2996 222.37 59.806 222.37H200.08C200.636 222.37 201.169 222.592 201.563 222.986C201.956 223.381 202.177 223.916 202.177 224.474Z" fill="#187E9E"/>
<path d="M198.822 182.803H52.0479C51.9367 182.803 51.83 182.758 51.7514 182.679C51.6727 182.6 51.6285 182.493 51.6285 182.382C51.6285 182.27 51.6727 182.163 51.7514 182.084C51.83 182.005 51.9367 181.961 52.0479 181.961H198.822C198.933 181.961 199.04 182.005 199.119 182.084C199.197 182.163 199.241 182.27 199.241 182.382C199.241 182.493 199.197 182.6 199.119 182.679C199.04 182.758 198.933 182.803 198.822 182.803Z" fill="#CCCCCC"/>
<path d="M198.822 192.905H52.0479C51.9367 192.905 51.83 192.861 51.7514 192.782C51.6727 192.703 51.6285 192.596 51.6285 192.484C51.6285 192.372 51.6727 192.265 51.7514 192.186C51.83 192.107 51.9367 192.063 52.0479 192.063H198.822C198.933 192.063 199.04 192.107 199.119 192.186C199.197 192.265 199.241 192.372 199.241 192.484C199.241 192.596 199.197 192.703 199.119 192.782C199.04 192.861 198.933 192.905 198.822 192.905Z" fill="#CCCCCC"/>
<path d="M198.822 203.007H52.0479C51.9367 203.007 51.83 202.963 51.7514 202.884C51.6727 202.805 51.6285 202.698 51.6285 202.586C51.6285 202.475 51.6727 202.368 51.7514 202.289C51.83 202.21 51.9367 202.165 52.0479 202.165H198.822C198.933 202.165 199.04 202.21 199.119 202.289C199.197 202.368 199.241 202.475 199.241 202.586C199.241 202.698 199.197 202.805 199.119 202.884C199.04 202.963 198.933 203.007 198.822 203.007Z" fill="#CCCCCC"/>
<path d="M198.822 213.109H52.0479C51.9367 213.109 51.83 213.065 51.7514 212.986C51.6727 212.907 51.6285 212.8 51.6285 212.688C51.6285 212.577 51.6727 212.47 51.7514 212.391C51.83 212.312 51.9367 212.268 52.0479 212.268H198.822C198.933 212.268 199.04 212.312 199.119 212.391C199.197 212.47 199.241 212.577 199.241 212.688C199.241 212.8 199.197 212.907 199.119 212.986C199.04 213.065 198.933 213.109 198.822 213.109Z" fill="#CCCCCC"/>
<path d="M304.381 180.475L270.176 223.085L163.822 137.069C151.704 127.268 149.517 109.737 158.947 97.9896C168.377 86.2423 185.908 84.6584 198.026 94.4588L304.381 180.475Z" fill="#F2F2F2"/>
<path d="M273.052 224.87C272.703 225.305 272.196 225.582 271.643 225.642C271.09 225.702 270.537 225.538 270.104 225.188L160.875 136.848C154.942 132.05 151.152 125.083 150.337 117.479C149.522 109.876 151.75 102.259 156.53 96.3048C161.31 90.3501 168.251 86.5453 175.826 85.7274C183.4 84.9095 190.989 87.1455 196.921 91.9434L306.15 180.284C306.364 180.458 306.543 180.672 306.675 180.914C306.807 181.157 306.89 181.423 306.92 181.698C306.949 181.973 306.925 182.251 306.847 182.516C306.77 182.782 306.641 183.029 306.468 183.244C306.295 183.46 306.082 183.639 305.84 183.771C305.598 183.904 305.333 183.987 305.059 184.017C304.785 184.046 304.508 184.021 304.244 183.943C303.979 183.865 303.733 183.736 303.519 183.562L194.29 95.2211C191.782 93.1907 188.899 91.6763 185.807 90.7643C182.716 89.8523 179.475 89.5606 176.271 89.9059C173.067 90.2512 169.963 91.2268 167.134 92.7768C164.306 94.3268 161.809 96.421 159.788 98.9397C157.766 101.458 156.258 104.352 155.351 107.456C154.443 110.559 154.154 113.812 154.499 117.028C154.845 120.244 155.818 123.36 157.363 126.198C158.909 129.037 160.996 131.541 163.506 133.57L272.735 221.911C273.167 222.261 273.444 222.77 273.503 223.325C273.563 223.879 273.4 224.435 273.052 224.87Z" fill="#CCCCCC"/>
<path d="M296.488 190.308L182.197 97.8739C182.155 97.8392 182.119 97.7964 182.093 97.7479C182.066 97.6994 182.049 97.6461 182.044 97.5912C182.038 97.5362 182.043 97.4806 182.058 97.4276C182.074 97.3746 182.099 97.3251 182.134 97.2821C182.169 97.239 182.211 97.2032 182.26 97.1767C182.308 97.1502 182.361 97.1336 182.416 97.1276C182.47 97.1217 182.526 97.1267 182.579 97.1423C182.632 97.1578 182.681 97.1837 182.724 97.2184L297.014 189.653C297.057 189.687 297.093 189.73 297.119 189.779C297.145 189.827 297.162 189.881 297.168 189.936C297.174 189.991 297.169 190.046 297.154 190.099C297.138 190.152 297.112 190.202 297.078 190.245C297.043 190.288 297 190.324 296.952 190.35C296.904 190.377 296.851 190.394 296.796 190.399C296.741 190.405 296.686 190.4 296.633 190.385C296.58 190.369 296.53 190.343 296.488 190.308V190.308Z" fill="#CCCCCC"/>
<path d="M290.173 198.175L175.883 105.74C175.796 105.67 175.741 105.569 175.729 105.458C175.717 105.347 175.75 105.236 175.82 105.149C175.889 105.062 175.991 105.006 176.101 104.994C176.212 104.982 176.322 105.015 176.409 105.085L290.699 197.519C290.742 197.554 290.778 197.597 290.804 197.645C290.831 197.694 290.847 197.747 290.853 197.802C290.859 197.857 290.854 197.913 290.839 197.966C290.823 198.019 290.798 198.068 290.763 198.111C290.728 198.155 290.686 198.19 290.637 198.217C290.589 198.243 290.536 198.26 290.481 198.266C290.426 198.272 290.371 198.267 290.318 198.251C290.265 198.235 290.216 198.21 290.173 198.175Z" fill="#CCCCCC"/>
<path d="M283.858 206.041L169.568 113.607C169.481 113.537 169.426 113.435 169.414 113.324C169.402 113.213 169.435 113.102 169.505 113.015C169.574 112.928 169.676 112.872 169.786 112.86C169.897 112.849 170.008 112.881 170.094 112.951L284.384 205.386C284.427 205.42 284.463 205.463 284.489 205.512C284.516 205.56 284.532 205.613 284.538 205.668C284.544 205.723 284.539 205.779 284.524 205.832C284.508 205.885 284.482 205.934 284.448 205.978C284.413 206.021 284.371 206.056 284.322 206.083C284.274 206.109 284.221 206.126 284.166 206.132C284.111 206.138 284.056 206.133 284.003 206.117C283.95 206.102 283.901 206.076 283.858 206.041V206.041Z" fill="#CCCCCC"/>
<path d="M277.544 213.908L163.253 121.473C163.211 121.439 163.175 121.396 163.148 121.347C163.122 121.299 163.105 121.245 163.1 121.19C163.094 121.135 163.099 121.08 163.114 121.027C163.13 120.974 163.155 120.924 163.19 120.881C163.225 120.838 163.267 120.802 163.316 120.776C163.364 120.75 163.417 120.733 163.472 120.727C163.526 120.721 163.582 120.726 163.635 120.742C163.687 120.757 163.737 120.783 163.78 120.818L278.07 213.252C278.113 213.287 278.148 213.33 278.175 213.378C278.201 213.427 278.218 213.48 278.224 213.535C278.23 213.59 278.225 213.646 278.21 213.699C278.194 213.752 278.168 213.801 278.134 213.844C278.099 213.887 278.056 213.923 278.008 213.95C277.96 213.976 277.906 213.993 277.852 213.999C277.797 214.005 277.741 214 277.689 213.984C277.636 213.968 277.586 213.942 277.544 213.908Z" fill="#CCCCCC"/>
<path d="M311.581 227H0.419355C0.308135 227 0.20147 226.956 0.122826 226.877C0.0441816 226.798 0 226.691 0 226.579C0 226.467 0.0441816 226.36 0.122826 226.281C0.20147 226.202 0.308135 226.158 0.419355 226.158H311.581C311.692 226.158 311.799 226.202 311.877 226.281C311.956 226.36 312 226.467 312 226.579C312 226.691 311.956 226.798 311.877 226.877C311.799 226.956 311.692 227 311.581 227Z" fill="#CCCCCC"/>
<path d="M141.776 164.423L136.982 164.423L134.702 145.862L141.778 145.863L141.776 164.423Z" fill="#FFB8B8"/>
<path d="M133.557 163.048H142.803V168.891H127.736C127.736 168.124 127.886 167.364 128.179 166.655C128.471 165.946 128.9 165.302 129.441 164.759C129.981 164.217 130.623 163.786 131.329 163.493C132.036 163.199 132.793 163.048 133.557 163.048Z" fill="#333333"/>
<path d="M92.7974 164.423L88.0033 164.423L85.7233 145.862L92.799 145.863L92.7974 164.423Z" fill="#FFB8B8"/>
<path d="M84.5788 163.048H93.8246V168.891H78.7573C78.7573 168.124 78.9079 167.364 79.2005 166.655C79.493 165.946 79.9218 165.302 80.4624 164.759C81.003 164.217 81.6447 163.786 82.351 163.493C83.0573 163.199 83.8143 163.048 84.5788 163.048Z" fill="#333333"/>
<path d="M108.81 26.7428V24.6381C108.81 21.0378 110.235 17.585 112.772 15.0392C115.308 12.4934 118.748 11.0632 122.335 11.0632H122.335C125.921 11.0632 129.361 12.4934 131.898 15.0392C134.434 17.585 135.859 21.0378 135.859 24.6381V26.7428C135.859 29.3383 134.832 31.8276 133.003 33.6629C131.175 35.4983 128.695 36.5293 126.109 36.5293H118.56C117.28 36.5293 116.012 36.2762 114.829 35.7844C113.646 35.2926 112.571 34.5717 111.666 33.6629C110.761 32.7542 110.043 31.6753 109.553 30.4879C109.063 29.3006 108.81 28.028 108.81 26.7428Z" fill="#333333"/>
<path d="M122.335 37.2535C128.023 37.2535 132.634 32.6249 132.634 26.9151C132.634 21.2054 128.023 16.5767 122.335 16.5767C116.646 16.5767 112.035 21.2054 112.035 26.9151C112.035 32.6249 116.646 37.2535 122.335 37.2535Z" fill="#FFB8B8"/>
<path d="M66.3103 62.4468C66.7283 62.0507 67.2277 61.7513 67.7734 61.5699C68.3191 61.3884 68.8978 61.3292 69.4688 61.3966C70.0397 61.4639 70.589 61.656 71.078 61.9595C71.567 62.2629 71.9837 62.6703 72.2988 63.1529L81.1282 61.4765L83.4518 66.6137L70.9499 68.8054C70.1071 69.283 69.119 69.4338 68.1729 69.229C67.2267 69.0243 66.3883 68.4783 65.8164 67.6946C65.2445 66.9108 64.9789 65.9437 65.07 64.9765C65.161 64.0093 65.6023 63.1092 66.3103 62.4468V62.4468Z" fill="#FFB8B8"/>
<path d="M114.305 43.7643L114.42 43.9399L99.9416 53.5136L75.5106 61.3443C75.1868 61.4487 74.909 61.6626 74.7246 61.9495C74.5402 62.2364 74.4605 62.5786 74.4992 62.9178L75.0321 67.5255C75.0558 67.7295 75.1216 67.9262 75.2254 68.1031C75.3292 68.28 75.4687 68.4332 75.6349 68.5528C75.8012 68.6724 75.9905 68.7558 76.1907 68.7977C76.3909 68.8396 76.5977 68.8391 76.7977 68.7961L99.7908 63.849C100.904 63.611 101.956 63.146 102.882 62.4829L119.148 50.8666C119.738 50.4432 120.208 49.8739 120.514 49.2139C120.819 48.5539 120.95 47.8258 120.892 47.1004C120.832 46.374 120.585 45.6756 120.175 45.0741C119.765 44.4726 119.206 43.9885 118.553 43.6697C117.9 43.3508 117.175 43.208 116.451 43.2554C115.726 43.3028 115.026 43.5387 114.42 43.9399L114.305 43.7643Z" fill="#CCCCCC"/>
<path d="M137.067 159.156C136.7 159.156 136.339 159.049 136.031 158.847C135.723 158.645 135.48 158.357 135.332 158.019L113.354 103.509C113.303 103.39 113.217 103.291 113.107 103.223C112.998 103.156 112.87 103.123 112.742 103.131C112.614 103.138 112.491 103.184 112.39 103.264C112.288 103.343 112.214 103.452 112.176 103.575L94.2453 156.643C94.1696 156.89 94.0444 157.119 93.8773 157.315C93.7103 157.512 93.5049 157.672 93.2739 157.786C93.0429 157.9 92.7911 157.966 92.5339 157.978C92.2768 157.991 92.0199 157.951 91.7788 157.86L85.7659 155.597C85.4396 155.475 85.1532 155.265 84.9388 154.99C84.7243 154.714 84.5901 154.385 84.5511 154.037C81.846 130.385 105.435 70.6813 105.674 70.0812L105.74 69.9149L127.243 74.6894L127.288 74.7383C135.867 84.1325 142.918 143.384 144.245 155.166C144.294 155.592 144.198 156.022 143.971 156.385C143.745 156.748 143.402 157.023 142.999 157.164L137.692 159.048C137.491 159.12 137.28 159.156 137.067 159.156Z" fill="#187E9E"/>
<path d="M118.54 76.6111C113.33 76.6111 107.522 75.5685 105.734 71.265L105.693 71.1662L105.748 71.0745C107.16 68.7504 109.025 64.7857 108.022 64.0415C106.047 62.5758 105.089 60.1647 105.174 56.875C105.359 49.7336 110.207 43.3932 117.237 41.0976H117.237C119.2 40.4673 121.197 39.9511 123.219 39.5518C124.692 39.2533 126.214 39.2862 127.674 39.648C129.133 40.0098 130.495 40.6917 131.661 41.6446C132.842 42.6037 133.796 43.8134 134.456 45.1868C135.115 46.5602 135.464 48.0632 135.476 49.5877C135.549 57.2195 134.379 67.8489 128.384 75.1465C128.103 75.4851 127.712 75.7133 127.279 75.791C124.395 76.3147 121.471 76.5891 118.54 76.6111Z" fill="#CCCCCC"/>
<path d="M116.602 76.3253C116.886 75.3044 117.559 74.4371 118.476 73.9119C119.393 73.3866 120.48 73.2459 121.499 73.5202C121.708 73.5786 121.911 73.6541 122.107 73.7459L128.811 67.6219L133.473 70.7748L123.886 79.2905C123.453 80.074 122.771 80.6896 121.95 81.0395C121.128 81.3893 120.213 81.4532 119.351 81.2211C118.849 81.0832 118.379 80.8467 117.969 80.5253C117.558 80.2039 117.215 79.8041 116.959 79.3488C116.704 78.8935 116.541 78.3919 116.479 77.873C116.418 77.354 116.46 76.828 116.602 76.3253Z" fill="#FFB8B8"/>
<path d="M127.749 76.4031C127.314 76.4034 126.892 76.2524 126.556 75.9758L123.912 73.8072C123.691 73.6265 123.515 73.398 123.395 73.1389C123.275 72.8799 123.215 72.5969 123.219 72.3113C123.223 72.0256 123.292 71.7447 123.42 71.4895C123.548 71.2342 123.732 71.0114 123.958 70.8375L135.046 62.3012C135.177 62.1995 135.264 62.0499 135.286 61.8849C135.308 61.7198 135.265 61.5526 135.165 61.4195L128.321 52.3375C127.526 51.2858 127.127 49.9857 127.195 48.6673C127.263 47.3488 127.794 46.0971 128.693 45.1336C129.64 44.1069 130.937 43.4751 132.327 43.3636C133.716 43.252 135.097 43.6689 136.194 44.5314L136.238 44.5773L143.384 54.8489C144.157 55.4571 144.779 56.2364 145.202 57.1259C145.626 58.0154 145.838 58.991 145.824 59.9766C145.809 60.9622 145.567 61.9311 145.118 62.8076C144.669 63.684 144.024 64.4444 143.233 65.0292L128.872 76.0317C128.547 76.2729 128.153 76.4031 127.749 76.4031Z" fill="#CCCCCC"/>
<path d="M113.211 24.0067V18.8773L122.335 14.8785L131.034 18.8773V24.0067C131.034 24.23 130.945 24.4441 130.788 24.602C130.631 24.7599 130.418 24.8486 130.195 24.8486H114.05C113.828 24.8486 113.614 24.7599 113.457 24.602C113.3 24.4441 113.211 24.23 113.211 24.0067Z" fill="#333333"/>
<path d="M121.916 11.7437C120.574 7.43405 123.392 2.49497 127.556 0.789089C131.721 -0.916789 136.704 0.275673 140.218 3.09404C143.733 5.91241 145.913 10.1338 147.068 14.4974C148.224 18.8611 148.443 23.4113 148.656 27.9214C153.773 28.8648 157.254 34.9569 155.481 39.8666C153.709 44.7763 147.148 47.2155 142.617 44.6493C138.085 42.0831 136.773 35.1849 140.043 31.1233C141.591 29.2015 142.455 26.8164 142.5 24.3458C142.544 21.8752 141.766 19.4603 140.289 17.4836C138.811 15.507 136.719 14.0815 134.344 13.433C131.969 12.7845 129.445 12.95 127.174 13.9033C124.652 14.9619 121.488 12.2115 121.916 11.7437Z" fill="#333333"/>
<path d="M64.4188 42.5485C58.2923 42.5081 52.2424 41.1781 46.6599 38.6444C46.3276 38.4958 46.0456 38.2533 45.8481 37.9466C45.6507 37.6399 45.5463 37.2821 45.5479 36.9169V21.5877C45.5484 21.0855 45.7474 20.604 46.1012 20.2489C46.455 19.8938 46.9346 19.694 47.435 19.6935H81.4027C81.903 19.694 82.3827 19.8938 82.7365 20.2489C83.0902 20.604 83.2892 21.0855 83.2898 21.5877V36.917C83.2913 37.2821 83.187 37.6399 82.9895 37.9466C82.7921 38.2533 82.51 38.4958 82.1777 38.6445C76.5953 41.1781 70.5453 42.5081 64.4188 42.5485Z" fill="#187E9E"/>
<path d="M64.4142 30.1299C64.1624 30.1301 63.913 30.0798 63.6809 29.9819L36.7449 18.5749C36.3975 18.4279 36.102 18.1797 35.8965 17.8625C35.6909 17.5453 35.5848 17.1735 35.5917 16.7951C35.5986 16.4168 35.7183 16.0492 35.9353 15.7397C36.1522 15.4303 36.4566 15.1932 36.8091 15.0589L63.7454 4.80191C64.1793 4.63595 64.659 4.63697 65.0921 4.80479L91.6675 15.0618C92.018 15.1971 92.3203 15.4343 92.5357 15.743C92.7512 16.0517 92.87 16.4179 92.8769 16.7948C92.8839 17.1716 92.7786 17.542 92.5747 17.8585C92.3708 18.175 92.0774 18.4232 91.7321 18.5714L65.1564 29.9782C64.9217 30.0785 64.6693 30.1301 64.4142 30.1299Z" fill="#187E9E"/>
<path d="M48.693 39.6875C50.0827 39.6875 51.2092 38.5568 51.2092 37.1619C51.2092 35.7671 50.0827 34.6364 48.693 34.6364C47.3034 34.6364 46.1769 35.7671 46.1769 37.1619C46.1769 38.5568 47.3034 39.6875 48.693 39.6875Z" fill="#333333"/>
<path opacity="0.2" d="M91.8239 16.9523L65.2481 28.3591C65.041 28.448 64.818 28.4941 64.5927 28.4947C64.3674 28.4952 64.1442 28.4502 63.9366 28.3623L37.0007 16.9557C36.6624 16.8158 36.3802 16.5668 36.1986 16.248C36.0798 16.4548 36.0062 16.6845 35.9827 16.922C35.9592 17.1594 35.9862 17.3992 36.0621 17.6254C36.1379 17.8515 36.2608 18.0589 36.4227 18.2337C36.5845 18.4086 36.7815 18.5468 37.0007 18.6394L63.9366 30.046C64.1442 30.1339 64.3674 30.1789 64.5927 30.1784C64.818 30.1778 65.041 30.1317 65.2481 30.0428L91.8239 18.636C92.042 18.5427 92.2378 18.404 92.3985 18.2291C92.5592 18.0542 92.6811 17.847 92.7562 17.6214C92.8313 17.3957 92.8578 17.1566 92.8341 16.9199C92.8103 16.6831 92.7368 16.4541 92.6184 16.248C92.4382 16.5643 92.1589 16.8119 91.8239 16.9523Z" fill="#333333"/>
<path d="M48.9045 37.1521C49.0157 37.1521 49.1224 37.1077 49.201 37.0288C49.2796 36.9498 49.3238 36.8428 49.3238 36.7311V22.6463L63.1546 17.5888C63.2659 17.5905 63.3732 17.5477 63.453 17.47C63.5328 17.3922 63.5786 17.2858 63.5802 17.1742C63.5819 17.0625 63.5393 16.9548 63.4618 16.8747C63.3844 16.7946 63.2784 16.7486 63.1671 16.747L49.3363 21.8045C49.225 21.8019 49.1144 21.822 49.011 21.8636C48.9077 21.9053 48.8139 21.9675 48.7352 22.0466C48.6557 22.1247 48.5926 22.218 48.5497 22.321C48.5067 22.424 48.4848 22.5346 48.4851 22.6463V36.7311C48.4851 36.8428 48.5293 36.9498 48.6079 37.0288C48.6866 37.1077 48.7932 37.152 48.9045 37.1521Z" fill="#333333"/>
</svg>
