<svg width="312" height="227" viewBox="0 0 312 227" fill="none" xmlns="http://www.w3.org/2000/svg">
<g clip-path="url(#clip0)">
<path d="M311.549 225.259H0.450867C0.33129 225.259 0.216609 225.211 0.132055 225.126C34.4118 224.351 0 224.925 0 224.805C0 224.685 0.0475008 224.569 0.132055 224.484C0.216609 224.399 29.8235 224.351 29.9431 224.351H311.549C311.669 224.351 311.783 224.399 311.868 224.484C311.952 224.569 312 224.685 312 224.805C312 224.925 311.952 225.041 311.868 225.126C311.783 225.211 311.669 225.259 311.549 225.259Z" fill="#CCCCCC"/>
<path d="M280.757 146.061H97.7049C96.9276 146.061 96.1822 146.372 95.6326 146.926C95.083 147.479 94.7742 148.23 94.7742 149.013C94.7742 149.796 95.083 150.547 95.6326 151.1C96.1822 151.654 96.9276 151.965 97.7049 151.965H102.89V222.579C102.89 223.362 103.199 224.113 103.748 224.666C104.298 225.22 105.043 225.531 105.82 225.531C106.598 225.531 107.343 225.22 107.893 224.666C108.442 224.113 108.751 223.362 108.751 222.579L108.796 151.965H269.26V222.579C269.26 223.362 269.569 224.113 270.118 224.666C270.668 225.22 271.413 225.531 272.191 225.531C272.968 225.531 273.713 225.22 274.263 224.666C274.812 224.113 275.121 223.362 275.121 222.579V153.521L275.974 151.965H280.757C281.534 151.965 282.28 151.654 282.829 151.1C283.379 150.547 283.688 149.796 283.688 149.013C283.688 148.23 283.379 147.479 282.829 146.926C282.28 146.372 281.534 146.061 280.757 146.061Z" fill="#CCCCCC"/>
<path d="M199.19 147.606H143.742C142.668 147.605 141.639 147.175 140.88 146.41C140.121 145.645 139.694 144.609 139.692 143.527V112.78C139.694 111.698 140.121 110.662 140.88 109.897C141.639 109.132 142.668 108.702 143.742 108.701H199.19C200.264 108.702 201.293 109.132 202.053 109.897C202.812 110.662 203.239 111.698 203.24 112.78V143.527C203.239 144.609 202.812 145.645 202.053 146.41C201.293 147.175 200.264 147.605 199.19 147.606Z" fill="#333333"/>
<path d="M199.19 111.84H143.742C143.495 111.841 143.258 111.94 143.083 112.116C142.908 112.292 142.809 112.531 142.809 112.78V143.528C142.809 143.777 142.908 144.016 143.083 144.192C143.258 144.368 143.495 144.467 143.742 144.468H199.19C199.437 144.467 199.674 144.368 199.849 144.192C200.024 144.016 200.123 143.777 200.123 143.528V112.78C200.123 112.531 200.024 112.292 199.849 112.116C199.674 111.94 199.437 111.841 199.19 111.84Z" fill="white"/>
<path d="M176.195 133.609C176.195 133.609 169.558 132.069 165.907 134.893C162.256 137.717 170.553 144.137 170.553 144.137L176.195 133.609Z" fill="#333333"/>
<path d="M171.791 130.699C175.249 130.699 178.053 127.875 178.053 124.392C178.053 120.909 175.249 118.086 171.791 118.086C168.333 118.086 165.53 120.909 165.53 124.392C165.53 127.875 168.333 130.699 171.791 130.699Z" fill="#A0616A"/>
<path d="M166.95 115.54C167.367 114.826 167.972 114.242 168.699 113.853C169.425 113.464 170.243 113.285 171.065 113.335C171.923 113.443 172.761 113.679 173.551 114.036L177.644 115.644C178.703 116.06 179.863 116.57 180.323 117.617C180.75 118.589 180.431 119.712 180.109 120.724L178.578 125.534C178.408 124.446 178.117 123.38 177.71 122.357C177.296 121.327 176.549 120.468 175.589 119.921C174.526 119.371 173.273 119.383 172.079 119.441C170.389 119.523 168.551 119.739 167.35 120.94C166.712 121.622 166.28 122.472 166.103 123.392C165.93 124.307 165.842 125.236 165.842 126.167C165.149 124.967 164.565 123.706 164.097 122.4C163.713 121.428 163.494 120.397 163.449 119.351C163.409 118.296 163.757 117.263 164.425 116.451C164.765 116.053 165.207 115.759 165.704 115.602C166.2 115.445 166.73 115.43 167.234 115.56L166.95 115.54Z" fill="#333333"/>
<path d="M186.741 139.078C186.683 138.865 186.563 138.674 186.397 138.529C186.231 138.385 186.026 138.293 185.808 138.265C185.794 138.255 185.779 138.246 185.763 138.238L176.416 132.962C176.149 132.811 175.835 132.77 175.539 132.847C175.242 132.923 174.987 133.112 174.825 133.374L172.269 137.543L168.418 133.665L168.357 133.603C168.16 133.404 167.899 133.282 167.62 133.257C167.342 133.232 167.064 133.308 166.835 133.469L159.153 138.887C159.14 138.887 159.126 138.892 159.112 138.892C158.745 138.953 158.409 139.139 158.161 139.419C157.912 139.699 157.766 140.056 157.746 140.431L157.548 144.468H188.225L186.741 139.078Z" fill="#187E9E"/>
<path d="M203.863 143.841H197.944C197.944 143.675 197.879 143.515 197.762 143.397C197.645 143.28 197.487 143.213 197.321 143.213H195.452C195.287 143.213 195.129 143.28 195.012 143.397C194.895 143.515 194.829 143.675 194.829 143.841H192.96C192.96 143.675 192.895 143.515 192.778 143.397C192.661 143.28 192.502 143.213 192.337 143.213H190.468C190.303 143.213 190.144 143.28 190.028 143.397C189.911 143.515 189.845 143.675 189.845 143.841H187.976C187.976 143.675 187.91 143.515 187.794 143.397C187.677 143.28 187.518 143.213 187.353 143.213H185.484C185.319 143.213 185.16 143.28 185.043 143.397C184.927 143.515 184.861 143.675 184.861 143.841H182.992C182.992 143.675 182.926 143.515 182.809 143.397C182.693 143.28 182.534 143.213 182.369 143.213H180.5C180.335 143.213 180.176 143.28 180.059 143.397C179.942 143.515 179.877 143.675 179.877 143.841H178.008C178.008 143.675 177.942 143.515 177.825 143.397C177.708 143.28 177.55 143.213 177.385 143.213H175.516C175.351 143.213 175.192 143.28 175.075 143.397C174.958 143.515 174.893 143.675 174.893 143.841H173.024C173.024 143.675 172.958 143.515 172.841 143.397C172.724 143.28 172.566 143.213 172.401 143.213H170.532C170.366 143.213 170.208 143.28 170.091 143.397C169.974 143.515 169.909 143.675 169.909 143.841H168.04C168.04 143.675 167.974 143.515 167.857 143.397C167.74 143.28 167.582 143.213 167.417 143.213H165.547C165.382 143.213 165.224 143.28 165.107 143.397C164.99 143.515 164.924 143.675 164.924 143.841H163.055C163.055 143.675 162.99 143.515 162.873 143.397C162.756 143.28 162.598 143.213 162.432 143.213H160.563C160.398 143.213 160.24 143.28 160.123 143.397C160.006 143.515 159.94 143.675 159.94 143.841H158.071C158.071 143.675 158.006 143.515 157.889 143.397C157.772 143.28 157.613 143.213 157.448 143.213H155.579C155.414 143.213 155.256 143.28 155.139 143.397C155.022 143.515 154.956 143.675 154.956 143.841H153.087C153.087 143.675 153.021 143.515 152.905 143.397C152.788 143.28 152.629 143.213 152.464 143.213H150.595C150.43 143.213 150.271 143.28 150.155 143.397C150.038 143.515 149.972 143.675 149.972 143.841H148.103C148.103 143.675 148.037 143.515 147.921 143.397C147.804 143.28 147.645 143.213 147.48 143.213H145.611C145.446 143.213 145.287 143.28 145.17 143.397C145.054 143.515 144.988 143.675 144.988 143.841H139.069C138.574 143.842 138.099 144.04 137.75 144.393C137.4 144.746 137.203 145.225 137.203 145.723C137.203 146.222 137.4 146.701 137.75 147.054C138.099 147.407 138.574 147.605 139.069 147.606H203.863C204.359 147.606 204.834 147.408 205.185 147.055C205.535 146.702 205.732 146.223 205.732 145.723C205.732 145.224 205.535 144.745 205.185 144.392C204.834 144.039 204.359 143.841 203.863 143.841Z" fill="#333333"/>
<path d="M129.434 132.909V145.408H98.3417C97.5086 145.438 96.6783 145.298 95.9001 144.997C95.1219 144.696 94.4119 144.24 93.8123 143.657C93.2128 143.074 92.7359 142.375 92.4103 141.602C92.0846 140.829 91.9167 139.998 91.9167 139.159C91.9167 138.319 92.0846 137.488 92.4103 136.715C92.7359 135.942 93.2128 135.244 93.8123 134.66C94.4119 134.077 95.1219 133.621 95.9001 133.321C96.6783 133.02 97.5086 132.88 98.3417 132.909H129.434Z" fill="#F2F2F2"/>
<path d="M130.198 145.312C130.198 145.44 130.148 145.562 130.058 145.652C129.969 145.742 129.848 145.793 129.721 145.793H97.7879C96.0536 145.793 94.3903 145.099 93.1639 143.864C91.9376 142.629 91.2486 140.954 91.2486 139.207C91.2486 137.46 91.9376 135.785 93.1639 134.549C94.3903 133.314 96.0536 132.62 97.7879 132.62H129.721C129.848 132.62 129.969 132.671 130.058 132.761C130.148 132.851 130.198 132.974 130.198 133.101C130.198 133.229 130.148 133.351 130.058 133.441C129.969 133.531 129.848 133.582 129.721 133.582H97.7879C96.3077 133.583 94.8885 134.176 93.8422 135.231C92.796 136.286 92.2083 137.716 92.2083 139.207C92.2083 140.698 92.796 142.128 93.8422 143.182C94.8885 144.237 96.3077 144.83 97.7879 144.832H129.721C129.848 144.832 129.969 144.882 130.058 144.972C130.148 145.063 130.198 145.185 130.198 145.312Z" fill="#187E9E"/>
<path d="M129.434 135.796H96.0217C96.0091 135.796 95.9966 135.793 95.985 135.789C95.9733 135.784 95.9627 135.777 95.9538 135.768C95.9449 135.758 95.9378 135.748 95.9329 135.736C95.9281 135.724 95.9256 135.711 95.9256 135.698C95.9256 135.686 95.9281 135.673 95.9329 135.661C95.9378 135.649 95.9449 135.638 95.9538 135.629C95.9627 135.62 95.9733 135.613 95.985 135.608C95.9966 135.603 96.0091 135.601 96.0217 135.601H129.434C129.46 135.601 129.484 135.611 129.502 135.63C129.519 135.648 129.529 135.673 129.529 135.698C129.529 135.724 129.519 135.749 129.502 135.767C129.484 135.785 129.46 135.796 129.434 135.796Z" fill="#CCCCCC"/>
<path d="M129.434 138.103H96.0217C96.0091 138.104 95.9966 138.101 95.985 138.096C95.9733 138.091 95.9627 138.084 95.9538 138.075C95.9449 138.066 95.9378 138.055 95.9329 138.043C95.9281 138.032 95.9256 138.019 95.9256 138.006C95.9256 137.993 95.9281 137.98 95.9329 137.969C95.9378 137.957 95.9449 137.946 95.9538 137.937C95.9627 137.928 95.9733 137.921 95.985 137.916C95.9966 137.911 96.0091 137.909 96.0217 137.909H129.434C129.46 137.909 129.484 137.919 129.502 137.937C129.519 137.956 129.529 137.98 129.529 138.006C129.529 138.032 129.519 138.056 129.502 138.075C129.484 138.093 129.46 138.103 129.434 138.103Z" fill="#CCCCCC"/>
<path d="M129.434 140.411H96.0217C96.0091 140.411 95.9966 140.409 95.985 140.404C95.9733 140.399 95.9627 140.392 95.9538 140.383C95.9449 140.374 95.9378 140.363 95.9329 140.351C95.9281 140.339 95.9256 140.327 95.9256 140.314C95.9256 140.301 95.9281 140.288 95.9329 140.276C95.9378 140.264 95.9449 140.254 95.9538 140.245C95.9627 140.236 95.9733 140.228 95.985 140.223C95.9966 140.219 96.0091 140.216 96.0217 140.216H129.434C129.46 140.216 129.484 140.227 129.502 140.245C129.519 140.263 129.529 140.288 129.529 140.314C129.529 140.339 129.519 140.364 129.502 140.382C129.484 140.401 129.46 140.411 129.434 140.411Z" fill="#CCCCCC"/>
<path d="M129.434 142.719H96.0217C96.0091 142.719 95.9966 142.716 95.985 142.712C95.9733 142.707 95.9627 142.7 95.9538 142.69C95.9449 142.681 95.9378 142.671 95.9329 142.659C95.9281 142.647 95.9256 142.634 95.9256 142.621C95.9256 142.608 95.9281 142.596 95.9329 142.584C95.9378 142.572 95.9449 142.561 95.9538 142.552C95.9627 142.543 95.9733 142.536 95.985 142.531C95.9966 142.526 96.0091 142.524 96.0217 142.524H129.434C129.46 142.524 129.484 142.534 129.502 142.553C129.519 142.571 129.529 142.596 129.529 142.621C129.529 142.647 129.519 142.672 129.502 142.69C129.484 142.708 129.46 142.719 129.434 142.719Z" fill="#CCCCCC"/>
<path d="M123.573 119.739V132.239H92.4804C91.6473 132.268 90.817 132.128 90.0388 131.827C89.2607 131.526 88.5506 131.071 87.9511 130.488C87.3515 129.904 86.8747 129.205 86.549 128.433C86.2233 127.66 86.0555 126.829 86.0555 125.989C86.0555 125.15 86.2233 124.319 86.549 123.546C86.8747 122.773 87.3515 122.074 87.9511 121.491C88.5506 120.908 89.2607 120.452 90.0388 120.151C90.817 119.85 91.6473 119.71 92.4804 119.739H123.573Z" fill="#F2F2F2"/>
<path d="M124.337 132.143C124.337 132.271 124.287 132.393 124.197 132.483C124.108 132.573 123.986 132.624 123.86 132.624H91.9267C91.0679 132.624 90.2176 132.453 89.4242 132.122C88.6308 131.791 87.9099 131.306 87.3027 130.695C86.6954 130.083 86.2137 129.357 85.8851 128.558C85.5565 127.759 85.3873 126.902 85.3873 126.037C85.3873 125.172 85.5565 124.316 85.8851 123.517C86.2137 122.718 86.6954 121.992 87.3027 121.38C87.9099 120.769 88.6308 120.283 89.4242 119.952C90.2176 119.621 91.0679 119.451 91.9267 119.451H123.86C123.986 119.451 124.108 119.502 124.197 119.592C124.287 119.682 124.337 119.804 124.337 119.932C124.337 120.059 124.287 120.182 124.197 120.272C124.108 120.362 123.986 120.413 123.86 120.413H91.9267C90.4464 120.414 89.0272 121.007 87.9809 122.062C86.9347 123.117 86.347 124.546 86.347 126.037C86.347 127.528 86.9347 128.958 87.9809 130.013C89.0272 131.068 90.4464 131.661 91.9267 131.662H123.86C123.986 131.662 124.108 131.713 124.197 131.803C124.287 131.893 124.337 132.016 124.337 132.143Z" fill="#187E9E"/>
<path d="M123.573 122.627H90.1605C90.1479 122.627 90.1354 122.624 90.1237 122.619C90.1121 122.614 90.1015 122.607 90.0925 122.598C90.0836 122.589 90.0765 122.578 90.0717 122.567C90.0668 122.555 90.0643 122.542 90.0643 122.529C90.0643 122.516 90.0668 122.504 90.0717 122.492C90.0765 122.48 90.0836 122.469 90.0925 122.46C90.1015 122.451 90.1121 122.444 90.1237 122.439C90.1354 122.434 90.1479 122.432 90.1605 122.432H123.573C123.598 122.432 123.623 122.442 123.64 122.46C123.658 122.479 123.668 122.503 123.668 122.529C123.668 122.555 123.658 122.58 123.64 122.598C123.623 122.616 123.598 122.626 123.573 122.627Z" fill="#CCCCCC"/>
<path d="M123.573 124.934H90.1605C90.1479 124.934 90.1354 124.932 90.1237 124.927C90.1121 124.922 90.1015 124.915 90.0925 124.906C90.0836 124.897 90.0765 124.886 90.0717 124.874C90.0668 124.862 90.0643 124.85 90.0643 124.837C90.0643 124.824 90.0668 124.811 90.0717 124.799C90.0765 124.787 90.0836 124.777 90.0925 124.768C90.1015 124.759 90.1121 124.751 90.1237 124.747C90.1354 124.742 90.1479 124.739 90.1605 124.739H123.573C123.598 124.74 123.623 124.75 123.64 124.768C123.658 124.786 123.668 124.811 123.668 124.837C123.668 124.863 123.658 124.887 123.64 124.905C123.623 124.924 123.598 124.934 123.573 124.934Z" fill="#CCCCCC"/>
<path d="M123.573 127.242H90.1605C90.1479 127.242 90.1354 127.239 90.1237 127.235C90.1121 127.23 90.1015 127.223 90.0925 127.214C90.0836 127.204 90.0765 127.194 90.0717 127.182C90.0668 127.17 90.0643 127.157 90.0643 127.144C90.0643 127.132 90.0668 127.119 90.0717 127.107C90.0765 127.095 90.0836 127.084 90.0925 127.075C90.1015 127.066 90.1121 127.059 90.1237 127.054C90.1354 127.049 90.1479 127.047 90.1605 127.047H123.573C123.598 127.047 123.623 127.058 123.64 127.076C123.658 127.094 123.668 127.119 123.668 127.144C123.668 127.17 123.658 127.195 123.64 127.213C123.623 127.231 123.598 127.242 123.573 127.242Z" fill="#CCCCCC"/>
<path d="M123.573 129.549H90.1605C90.1479 129.55 90.1354 129.547 90.1237 129.542C90.1121 129.537 90.1015 129.53 90.0925 129.521C90.0836 129.512 90.0765 129.501 90.0717 129.49C90.0668 129.478 90.0643 129.465 90.0643 129.452C90.0643 129.439 90.0668 129.427 90.0717 129.415C90.0765 129.403 90.0836 129.392 90.0925 129.383C90.1015 129.374 90.1121 129.367 90.1237 129.362C90.1354 129.357 90.1479 129.355 90.1605 129.355H123.573C123.598 129.355 123.623 129.365 123.64 129.383C123.658 129.402 123.668 129.426 123.668 129.452C123.668 129.478 123.658 129.502 123.64 129.521C123.623 129.539 123.598 129.549 123.573 129.549Z" fill="#CCCCCC"/>
<path d="M159.744 189.838V178.94C159.744 178.458 159.554 177.996 159.215 177.655C158.877 177.315 158.418 177.123 157.94 177.123H116.911C116.433 177.123 115.974 177.315 115.636 177.655C115.298 177.996 115.108 178.458 115.108 178.94V189.838H159.744Z" fill="#CCCCCC"/>
<path d="M159.744 193.925H115.108V208.003H159.744V193.925Z" fill="#CCCCCC"/>
<path d="M115.108 212.09V222.989C115.108 223.47 115.298 223.932 115.636 224.273C115.974 224.614 116.433 224.805 116.911 224.805H157.94C158.418 224.805 158.877 224.614 159.215 224.273C159.554 223.932 159.744 223.47 159.744 222.989V212.09H115.108Z" fill="#CCCCCC"/>
<path d="M137.2 185.297C137.947 185.297 138.553 184.687 138.553 183.935C138.553 183.183 137.947 182.573 137.2 182.573C136.453 182.573 135.848 183.183 135.848 183.935C135.848 184.687 136.453 185.297 137.2 185.297Z" fill="white"/>
<path d="M137.2 203.462C137.947 203.462 138.553 202.852 138.553 202.099C138.553 201.347 137.947 200.737 137.2 200.737C136.453 200.737 135.848 201.347 135.848 202.099C135.848 202.852 136.453 203.462 137.2 203.462Z" fill="white"/>
<path d="M137.273 221.242C138.02 221.242 138.625 220.632 138.625 219.879C138.625 219.127 138.02 218.517 137.273 218.517C136.526 218.517 135.92 219.127 135.92 219.879C135.92 220.632 136.526 221.242 137.273 221.242Z" fill="white"/>
<path d="M154.683 164.697V177.196H123.59C122.757 177.226 121.927 177.086 121.149 176.785C120.371 176.484 119.66 176.028 119.061 175.445C118.461 174.861 117.985 174.163 117.659 173.39C117.333 172.617 117.165 171.786 117.165 170.946C117.165 170.107 117.333 169.276 117.659 168.503C117.985 167.73 118.461 167.031 119.061 166.448C119.66 165.865 120.371 165.409 121.149 165.108C121.927 164.807 122.757 164.667 123.59 164.697H154.683Z" fill="#F2F2F2"/>
<path d="M155.447 177.1C155.447 177.228 155.396 177.35 155.307 177.44C155.217 177.53 155.096 177.581 154.969 177.581H123.036C122.177 177.582 121.326 177.412 120.532 177.081C119.738 176.75 119.017 176.265 118.409 175.654C117.801 175.042 117.319 174.316 116.99 173.516C116.661 172.717 116.492 171.86 116.492 170.995C116.492 170.129 116.661 169.272 116.99 168.473C117.319 167.673 117.801 166.947 118.409 166.335C119.017 165.724 119.738 165.239 120.532 164.908C121.326 164.577 122.177 164.407 123.036 164.408H154.969C155.096 164.408 155.217 164.459 155.307 164.549C155.397 164.639 155.447 164.761 155.447 164.889C155.447 165.016 155.397 165.139 155.307 165.229C155.217 165.319 155.096 165.37 154.969 165.37H123.036C121.556 165.371 120.137 165.964 119.091 167.019C118.044 168.074 117.457 169.504 117.457 170.995C117.457 172.485 118.044 173.915 119.091 174.97C120.137 176.025 121.556 176.618 123.036 176.619H154.969C155.096 176.619 155.217 176.67 155.307 176.76C155.396 176.85 155.447 176.973 155.447 177.1Z" fill="#187E9E"/>
<path d="M154.683 167.584H121.27C121.258 167.584 121.245 167.581 121.234 167.576C121.222 167.572 121.211 167.564 121.202 167.555C121.193 167.546 121.186 167.536 121.182 167.524C121.177 167.512 121.174 167.499 121.174 167.486C121.174 167.473 121.177 167.461 121.182 167.449C121.186 167.437 121.193 167.426 121.202 167.417C121.211 167.408 121.222 167.401 121.234 167.396C121.245 167.391 121.258 167.389 121.27 167.389H154.683C154.708 167.389 154.732 167.399 154.75 167.418C154.768 167.436 154.778 167.46 154.778 167.486C154.778 167.512 154.768 167.537 154.75 167.555C154.732 167.573 154.708 167.583 154.683 167.584Z" fill="#CCCCCC"/>
<path d="M154.683 169.891H121.27C121.258 169.891 121.245 169.889 121.234 169.884C121.222 169.879 121.211 169.872 121.202 169.863C121.193 169.854 121.186 169.843 121.182 169.831C121.177 169.819 121.174 169.807 121.174 169.794C121.174 169.781 121.177 169.768 121.182 169.756C121.186 169.745 121.193 169.734 121.202 169.725C121.211 169.716 121.222 169.709 121.234 169.704C121.245 169.699 121.258 169.696 121.27 169.696H154.683C154.708 169.697 154.732 169.707 154.75 169.725C154.768 169.743 154.778 169.768 154.778 169.794C154.778 169.82 154.768 169.844 154.75 169.863C154.732 169.881 154.708 169.891 154.683 169.891Z" fill="#CCCCCC"/>
<path d="M154.683 172.199H121.27C121.258 172.199 121.245 172.197 121.234 172.192C121.222 172.187 121.211 172.18 121.202 172.171C121.193 172.162 121.186 172.151 121.182 172.139C121.177 172.127 121.174 172.114 121.174 172.102C121.174 172.089 121.177 172.076 121.182 172.064C121.186 172.052 121.193 172.041 121.202 172.032C121.211 172.023 121.222 172.016 121.234 172.011C121.245 172.006 121.258 172.004 121.27 172.004H154.683C154.708 172.004 154.732 172.015 154.75 172.033C154.768 172.051 154.778 172.076 154.778 172.102C154.778 172.127 154.768 172.152 154.75 172.17C154.732 172.188 154.708 172.199 154.683 172.199Z" fill="#CCCCCC"/>
<path d="M154.683 174.507H121.27C121.258 174.507 121.245 174.504 121.234 174.499C121.222 174.495 121.211 174.487 121.202 174.478C121.193 174.469 121.186 174.458 121.182 174.447C121.177 174.435 121.174 174.422 121.174 174.409C121.174 174.396 121.177 174.384 121.182 174.372C121.186 174.36 121.193 174.349 121.202 174.34C121.211 174.331 121.222 174.324 121.234 174.319C121.245 174.314 121.258 174.312 121.27 174.312H154.683C154.708 174.312 154.732 174.322 154.75 174.341C154.768 174.359 154.778 174.383 154.778 174.409C154.778 174.435 154.768 174.46 154.75 174.478C154.732 174.496 154.708 174.506 154.683 174.507Z" fill="#CCCCCC"/>
<path d="M112.767 83.1122V3.41558C112.768 2.51003 113.125 1.64186 113.761 1.00154C114.397 0.361219 115.259 0.00103003 116.158 0H178.706C179.605 0.00103603 180.467 0.361227 181.103 1.00155C181.738 1.64187 182.096 2.51003 182.097 3.41558V83.1122C182.096 84.0178 181.738 84.8859 181.103 85.5263C180.467 86.1666 179.605 86.5268 178.706 86.5278H116.158C115.259 86.5268 114.397 86.1666 113.761 85.5263C113.125 84.8859 112.768 84.0178 112.767 83.1122ZM116.158 0.759018C115.458 0.759806 114.788 1.03995 114.294 1.53798C113.799 2.03601 113.521 2.71126 113.52 3.41558V83.1122C113.521 83.8165 113.799 84.4918 114.294 84.9898C114.788 85.4879 115.458 85.768 116.158 85.7688H178.706C179.405 85.768 180.076 85.4879 180.57 84.9898C181.064 84.4918 181.343 83.8165 181.343 83.1122V3.41558C181.343 2.71126 181.064 2.03601 180.57 1.53798C180.076 1.03995 179.405 0.759807 178.706 0.759018H116.158Z" fill="#E6E6E6"/>
<path d="M150.939 36.6004V20.2361C150.94 19.7834 151.118 19.3493 151.436 19.0291C151.754 18.7089 152.185 18.5289 152.635 18.5284H166.403C166.852 18.5289 167.283 18.7089 167.601 19.0291C167.919 19.3493 168.098 19.7834 168.098 20.2361V36.6004C168.098 37.0532 167.919 37.4872 167.601 37.8074C167.283 38.1276 166.852 38.3077 166.403 38.3082H152.635C152.185 38.3077 151.754 38.1276 151.436 37.8074C151.118 37.4872 150.94 37.0532 150.939 36.6004Z" fill="#187E9E"/>
<path d="M124.187 44.1905V27.8263C124.187 27.3736 124.366 26.9395 124.684 26.6193C125.002 26.2991 125.433 26.119 125.882 26.1185H139.65C140.1 26.119 140.531 26.2991 140.849 26.6193C141.167 26.9395 141.346 27.3736 141.346 27.8263V44.1906C141.346 44.6433 141.167 45.0774 140.849 45.3976C140.531 45.7178 140.1 45.8978 139.65 45.8983H125.882C125.433 45.8978 125.002 45.7177 124.684 45.3976C124.366 45.0774 124.187 44.6433 124.187 44.1905Z" fill="#CCCCCC"/>
<path d="M145.664 67.3405V50.9763C145.665 50.5235 145.843 50.0894 146.161 49.7692C146.479 49.4491 146.91 49.269 147.36 49.2685H161.128C161.577 49.269 162.008 49.4491 162.326 49.7692C162.644 50.0894 162.823 50.5235 162.823 50.9763V67.3405C162.823 67.7933 162.644 68.2274 162.326 68.5475C162.008 68.8677 161.577 69.0478 161.128 69.0483H147.36C146.91 69.0478 146.479 68.8677 146.161 68.5475C145.843 68.2274 145.665 67.7933 145.664 67.3405Z" fill="#187E9E"/>
<path d="M227.942 142.157H213.775C213.641 142.157 213.508 142.188 213.388 142.247L209.812 144.05C209.695 144.101 209.594 144.185 209.524 144.292C209.453 144.4 209.416 144.525 209.416 144.654C209.416 144.783 209.453 144.909 209.524 145.016C209.594 145.124 209.695 145.208 209.812 145.258L213.388 147.061C213.508 147.121 213.641 147.152 213.775 147.152H227.942C228.137 147.163 228.329 147.097 228.476 146.967C228.622 146.837 228.712 146.654 228.726 146.457V142.851C228.712 142.655 228.622 142.472 228.476 142.342C228.329 142.212 228.137 142.145 227.942 142.157Z" fill="#333333"/>
<path d="M228.726 142.851V146.457C228.712 146.654 228.622 146.837 228.475 146.967C228.329 147.097 228.137 147.163 227.942 147.152H225.119V142.157H227.942C228.137 142.145 228.329 142.212 228.475 142.342C228.622 142.472 228.712 142.655 228.726 142.851Z" fill="#187E9E"/>
<path d="M227.835 115.182C228.477 114.903 229.17 114.764 229.869 114.774C230.567 114.783 231.256 114.942 231.89 115.238C232.524 115.535 233.088 115.963 233.547 116.494C234.005 117.026 234.346 117.649 234.549 118.322C234.612 118.536 234.66 118.754 234.693 118.974L254.503 128.868L259.088 125.808L264.792 132.422L257.792 138.149C256.95 138.832 255.912 139.224 254.832 139.266C253.751 139.308 252.687 138.998 251.795 138.382L231.696 124.382C231.546 124.446 231.393 124.502 231.238 124.55C230.569 124.754 229.865 124.813 229.172 124.724C228.478 124.634 227.812 124.398 227.215 124.031C226.619 123.664 226.106 123.174 225.711 122.594C225.316 122.013 225.046 121.355 224.921 120.663C224.884 120.462 224.86 120.259 224.848 120.054C224.792 119.032 225.049 118.017 225.583 117.146C226.117 116.275 226.903 115.59 227.835 115.182Z" fill="#FFB8B8"/>
<path d="M269.096 176.101H247.45C247.45 176.727 225.141 177.236 225.141 177.236C224.791 177.502 224.472 177.806 224.19 178.144C223.342 179.162 222.879 180.449 222.882 181.777V182.685C222.883 184.191 223.477 185.634 224.533 186.699C225.59 187.763 227.023 188.361 228.518 188.362H269.096C270.59 188.361 272.023 187.762 273.08 186.698C274.136 185.634 274.731 184.191 274.732 182.685V181.777C274.73 180.272 274.135 178.83 273.079 177.766C272.022 176.702 270.59 176.103 269.096 176.101Z" fill="#333333"/>
<path d="M245.55 226.282H251.411V188.136H245.55V226.282Z" fill="#333333"/>
<path d="M228.868 226.074C228.868 226.712 237.75 226.321 248.706 226.321C259.662 226.321 268.544 226.712 268.544 226.074C268.544 225.437 259.662 220.378 248.706 220.378C237.75 220.378 228.868 225.437 228.868 226.074Z" fill="#333333"/>
<path d="M234.159 221.603L228.632 221.603L226.002 207.164L234.16 207.164L234.159 221.603Z" fill="#FFB8B8"/>
<path d="M235.569 227L217.746 226.999V226.772C217.746 225.855 217.925 224.946 218.274 224.098C218.623 223.251 219.134 222.48 219.778 221.832C220.422 221.183 221.187 220.668 222.028 220.317C222.87 219.966 223.772 219.785 224.683 219.785H224.684L235.569 219.786L235.569 227Z" fill="#333333"/>
<path d="M225.892 212.649L214.872 187.76C213.952 185.663 213.851 183.293 214.587 181.123C215.324 178.953 216.846 177.142 218.848 176.052L242.75 163.142L253.657 162.208L263.718 161.287L263.791 161.41C263.884 161.568 266.047 165.332 264.585 169.458C263.476 172.588 260.59 175.033 256.01 176.725C245.318 180.673 232.966 184.048 228.152 185.316C227.939 185.37 227.741 185.47 227.569 185.608C227.397 185.745 227.256 185.918 227.155 186.115C227.054 186.309 226.994 186.522 226.979 186.741C226.964 186.96 226.994 187.179 227.067 187.386L237.304 210.552C237.411 210.846 237.45 211.161 237.417 211.472C237.384 211.783 237.281 212.082 237.115 212.347C236.949 212.611 236.725 212.834 236.46 212.998C236.195 213.161 235.896 213.261 235.587 213.29L227.937 213.851C227.872 213.857 227.808 213.86 227.743 213.86C227.352 213.86 226.968 213.746 226.64 213.531C226.311 213.316 226.051 213.01 225.892 212.649Z" fill="#333333"/>
<path d="M236.864 221.603L231.337 221.603L228.707 207.164L236.865 207.164L236.864 221.603Z" fill="#FFB8B8"/>
<path d="M238.274 227L220.451 226.999V226.772C220.451 225.855 220.631 224.946 220.979 224.098C221.328 223.251 221.839 222.48 222.483 221.832C223.127 221.183 223.892 220.668 224.734 220.317C225.575 219.966 226.477 219.785 227.388 219.785H227.389L238.275 219.786L238.274 227Z" fill="#333333"/>
<path d="M229.048 214.012L218.028 189.123C217.108 187.025 217.007 184.655 217.743 182.485C218.48 180.315 220.002 178.505 222.004 177.414L245.906 164.505L256.813 163.57L266.874 162.649L266.947 162.773C267.04 162.931 269.203 166.694 267.741 170.82C266.632 173.95 263.746 176.395 259.166 178.087C248.474 182.036 236.122 185.411 231.308 186.678C231.095 186.733 230.897 186.832 230.725 186.97C230.553 187.108 230.412 187.281 230.311 187.477C230.21 187.671 230.15 187.885 230.135 188.103C230.12 188.322 230.15 188.542 230.223 188.748L240.46 211.914C240.567 212.208 240.606 212.523 240.573 212.834C240.54 213.145 240.437 213.445 240.271 213.709C240.105 213.974 239.881 214.196 239.616 214.36C239.351 214.523 239.052 214.624 238.743 214.652L231.093 215.213C231.028 215.22 230.964 215.223 230.899 215.223C230.508 215.223 230.124 215.108 229.796 214.893C229.467 214.678 229.207 214.372 229.048 214.012Z" fill="#333333"/>
<path d="M223.556 137.979C218.925 131.776 215.264 124.895 212.701 117.575C212.552 117.137 212.563 116.661 212.731 116.23C212.898 115.799 213.212 115.443 213.617 115.223L229.463 106.672C229.719 106.532 230.004 106.454 230.295 106.442C230.586 106.43 230.876 106.485 231.142 106.603C231.414 106.722 231.655 106.902 231.848 107.129C232.04 107.356 232.178 107.624 232.252 107.913C234.096 114.966 237.563 121.482 242.372 126.936C242.57 127.158 242.715 127.422 242.796 127.709C242.877 127.996 242.892 128.298 242.84 128.592C242.79 128.881 242.675 129.154 242.504 129.392C242.333 129.629 242.11 129.824 241.853 129.962L226.007 138.514C225.602 138.732 225.133 138.797 224.684 138.699C224.235 138.602 223.835 138.346 223.556 137.979Z" fill="#CCCCCC"/>
<path d="M224.637 137.161C224.722 137.268 224.842 137.342 224.975 137.37C225.109 137.397 225.248 137.377 225.368 137.313L241.214 128.761C241.291 128.721 241.358 128.663 241.409 128.592C241.46 128.522 241.494 128.44 241.508 128.354C241.525 128.263 241.52 128.169 241.495 128.08C241.469 127.992 241.424 127.91 241.362 127.842C236.411 122.228 232.842 115.519 230.944 108.258C230.922 108.168 230.879 108.085 230.82 108.015C230.761 107.944 230.686 107.888 230.602 107.852C230.522 107.816 230.436 107.799 230.349 107.803C230.262 107.806 230.177 107.83 230.101 107.873L214.256 116.424C214.136 116.489 214.042 116.595 213.991 116.722C213.94 116.85 213.935 116.991 213.976 117.122C216.494 124.31 220.089 131.068 224.637 137.161Z" fill="white"/>
<path d="M276.198 135.698L263.788 140.448L260.758 131.971C260.356 130.846 260.361 129.613 260.774 128.491C261.187 127.369 261.98 126.431 263.013 125.841C264.059 125.244 265.281 125.044 266.461 125.276C267.64 125.507 268.698 126.156 269.444 127.105L276.198 135.698Z" fill="#187E9E"/>
<path d="M244.633 169.284C244.371 169.098 244.153 168.858 243.991 168.58C243.829 168.303 243.727 167.993 243.693 167.673C242.104 152.728 243.211 141.033 247.077 131.918C247.758 130.346 248.784 128.95 250.078 127.835C251.372 126.72 252.9 125.914 254.547 125.479L264.578 124.969L264.63 124.994C266.894 126.111 268.74 127.933 269.895 130.19C271.05 132.446 271.452 135.018 271.041 137.523C267.815 146.089 265.113 155.007 267.174 162.202C267.26 162.503 267.285 162.818 267.248 163.129C267.21 163.44 267.111 163.74 266.955 164.011C266.805 164.273 266.602 164.501 266.361 164.682C266.119 164.862 265.843 164.99 265.551 165.059L246.444 169.637C246.134 169.711 245.813 169.718 245.5 169.657C245.188 169.597 244.892 169.469 244.633 169.284Z" fill="#187E9E"/>
<path d="M261.231 121.195C267.346 121.195 272.304 116.202 272.304 110.042C272.304 103.882 267.346 98.8884 261.231 98.8884C255.115 98.8884 250.157 103.882 250.157 110.042C250.157 116.202 255.115 121.195 261.231 121.195Z" fill="#FFB8B8"/>
<path d="M230.503 118.876L221.872 122.713C221.544 122.858 221.172 122.867 220.838 122.736C220.503 122.606 220.234 122.347 220.089 122.017L219.875 121.53C219.731 121.199 219.723 120.824 219.852 120.487C219.982 120.151 220.239 119.879 220.567 119.733L229.197 115.896C229.525 115.751 229.897 115.742 230.232 115.873C230.566 116.003 230.835 116.262 230.98 116.592L231.194 117.079C231.338 117.41 231.347 117.785 231.217 118.121C231.088 118.458 230.831 118.729 230.503 118.876Z" fill="#CCCCCC"/>
<path d="M233.659 124.779L225.029 128.616C224.7 128.762 224.328 128.77 223.994 128.64C223.659 128.509 223.39 128.25 223.245 127.92L223.031 127.433C222.887 127.102 222.879 126.728 223.008 126.391C223.138 126.054 223.395 125.783 223.723 125.637L232.353 121.8C232.681 121.654 233.053 121.646 233.388 121.776C233.722 121.907 233.991 122.165 234.137 122.496L234.35 122.983C234.495 123.313 234.503 123.688 234.373 124.025C234.244 124.362 233.987 124.633 233.659 124.779Z" fill="#CCCCCC"/>
<path d="M240.314 147.838L221.074 132.55C220.921 132.604 220.765 132.65 220.607 132.688C219.928 132.848 219.223 132.863 218.538 132.73C217.853 132.598 217.203 132.322 216.631 131.92C216.055 131.518 215.571 130.997 215.212 130.391C214.852 129.786 214.625 129.11 214.545 128.408C214.416 127.287 214.667 126.155 215.257 125.196C215.847 124.237 216.742 123.506 217.796 123.123C218.453 122.886 219.154 122.791 219.85 122.845C220.547 122.899 221.225 123.1 221.839 123.436C222.453 123.772 222.99 124.235 223.414 124.794C223.838 125.354 224.14 125.997 224.3 126.682C224.349 126.9 224.384 127.12 224.403 127.342L243.557 138.471L248.323 135.707L253.603 142.67L246.203 147.982C245.336 148.599 244.295 148.918 243.235 148.892C242.174 148.866 241.15 148.496 240.314 147.838Z" fill="#FFB8B8"/>
<path d="M255.951 144.838L244.973 137.319L250.132 129.959C250.817 128.982 251.823 128.28 252.972 127.977C254.122 127.675 255.34 127.791 256.412 128.306C257.497 128.827 258.361 129.721 258.848 130.827C259.335 131.933 259.414 133.179 259.07 134.338L255.951 144.838Z" fill="#187E9E"/>
<path d="M257.171 108.381C254.324 110.343 250.587 112.359 247.68 110.27C245.772 108.898 245.17 106.358 245.944 104.128C247.336 100.119 251.16 98.3541 254.818 97.0012C259.572 95.2424 264.748 93.8432 269.656 95.1027C274.564 96.3623 278.901 101.148 278.015 106.171C277.303 110.21 273.52 113.571 274.057 117.637C274.598 121.729 279.167 123.884 283.201 124.615C287.236 125.347 291.75 125.582 294.649 128.5C298.348 132.223 297.424 138.878 293.944 142.809C290.464 146.74 285.212 148.522 280.123 149.733C273.381 151.338 266.088 152.181 259.685 149.518C253.281 146.854 248.298 139.684 250.153 132.961C250.936 130.121 252.782 127.721 254.566 125.384C256.35 123.048 258.156 120.604 258.837 117.738C259.404 115.349 258.984 112.575 257.411 110.783C257.125 110.469 256.945 110.073 256.897 109.649C256.849 109.226 256.935 108.799 257.143 108.428L257.171 108.381Z" fill="#333333"/>
<path d="M49.177 162.571C46.3236 163.582 43.2598 163.835 40.281 163.306C37.3023 162.778 34.5088 161.485 32.1698 159.554C26.213 154.518 24.3453 146.222 22.8257 138.54C21.3274 130.966 19.8291 123.392 18.3309 115.818L27.7412 122.344C34.5086 127.038 41.4284 131.881 46.1141 138.679C50.7998 145.477 52.8451 154.757 49.0803 162.113" fill="#E6E6E6"/>
<path d="M39.1989 177.716C37.9751 179.589 36.2928 181.114 34.3143 182.142C32.3358 183.171 30.1276 183.669 27.9025 183.588C22.1841 183.315 17.4168 179.295 13.1253 175.479L0.431885 164.191L8.83281 163.786C14.8742 163.495 21.0716 163.223 26.8258 165.099C32.5801 166.976 37.887 171.492 38.9392 177.491" fill="#E6E6E6"/>
</g>
<defs>
<clipPath id="clip0">
<rect width="312" height="227" fill="white"/>
</clipPath>
</defs>
</svg>
