<svg width="312" height="227" viewBox="0 0 312 227" fill="none" xmlns="http://www.w3.org/2000/svg">
<g clip-path="url(#clip0)">
<path opacity="0.1" d="M309.803 87.0682H283.154V121.558H307.855C307.919 121.913 307.983 122.269 308.052 122.625H283.154V150.433L283.278 150.389C283.983 150.126 284.681 149.848 285.374 149.548L285.823 149.356C286.531 149.04 287.229 148.707 287.919 148.356C288.162 148.235 288.406 148.108 288.646 147.978C292.478 145.963 296.011 143.356 299.131 140.241C299.22 140.161 299.304 140.071 299.388 139.988C299.812 139.551 300.229 139.105 300.635 138.651C300.786 138.483 300.925 138.316 301.081 138.143C301.559 137.589 302.02 137.016 302.47 136.441C302.536 136.354 302.6 136.267 302.667 136.187C304.475 133.818 305.993 131.211 307.183 128.431C307.22 128.351 307.252 128.261 307.287 128.177C307.652 127.305 307.98 126.42 308.264 125.519C308.383 125.141 308.499 124.761 308.6 124.38C308.638 124.266 308.667 124.151 308.699 124.04C310.174 118.518 310.345 112.774 310.345 107.064C310.345 106.398 310.345 105.732 310.345 105.068C310.345 102.762 310.313 100.441 310.275 98.1231C310.275 97.5227 310.246 96.9223 310.235 96.3188C310.197 94.7899 310.148 93.2549 310.078 91.726C310.061 91.302 310.041 90.8749 310.017 90.454C310.017 90.2095 309.994 89.965 309.977 89.7205C309.925 88.8313 309.867 87.9472 309.803 87.0682Z" fill="#187E9E"/>
<path opacity="0.1" d="M283.154 48.667H297.774C295.38 45.1113 292.783 41.7169 289.997 38.5034C287.826 35.9718 285.542 33.502 283.154 31.1252V48.667Z" fill="#12B2E5"/>
<path opacity="0.1" d="M283.154 49.7347V86.0005H309.719C309.719 85.8953 309.719 85.7869 309.693 85.691C309.67 85.4032 309.646 85.1184 309.62 84.8337C309.594 84.4995 309.559 84.1621 309.528 83.8279C309.496 83.4936 309.455 83.1006 309.415 82.7385C309.374 82.3764 309.339 82.0112 309.296 81.6491C309.252 81.287 309.212 80.9249 309.165 80.5659C309.119 80.2069 309.075 79.8448 309.026 79.4858C308.986 79.1763 308.945 78.8884 308.901 78.5913C308.841 78.1673 308.777 77.7464 308.71 77.3255C308.71 77.2636 308.69 77.1986 308.681 77.1398C308.199 74.0659 307.546 71.0255 306.725 68.0347C305.857 64.867 304.755 61.7779 303.429 58.7965C302.003 55.6402 300.346 52.6092 298.473 49.7316L283.154 49.7347Z" fill="#12B2E5"/>
<path opacity="0.1" d="M219.867 87.0682V121.558H276.788V87.0682H219.867ZM219.867 122.622V145.979C226.493 143.717 234.07 144.633 240.939 146.49C246.258 147.929 251.441 149.894 256.751 151.302C259.122 151.951 261.53 152.437 263.959 152.757L264.557 152.828L265.426 152.912L266.296 152.98C266.326 152.977 266.356 152.977 266.386 152.98C266.513 152.98 266.643 152.98 266.774 152.998H266.907C267.064 152.998 267.22 153.017 267.377 153.017C267.6 153.017 267.826 153.017 268.052 153.039H268.342C268.565 153.039 268.791 153.039 269.017 153.039H269.513H269.913C270.084 153.039 270.252 153.039 270.42 153.02C270.693 153.02 270.965 152.995 271.241 152.977L271.748 152.94C271.957 152.94 272.168 152.909 272.374 152.887C272.817 152.85 273.243 152.803 273.693 152.745C273.867 152.723 274.043 152.701 274.217 152.673L274.475 152.639C274.913 152.577 275.345 152.506 275.783 152.426C276.104 152.373 276.426 152.311 276.751 152.246V122.622H219.867ZM262.203 48.6546V49.7192H219.867V86.0005H276.788V49.7316H273.933V48.667H276.788V25.2294C265.716 15.7034 252.774 8.24475 238.359 4.80325C232.288 3.36897 226.084 2.67745 219.867 2.74206V48.667L262.203 48.6546ZM132.058 48.4503L132.258 48.6546H213.499V3.06083C199.035 4.3452 184.93 9.53222 173.559 18.1267C168.096 22.2522 163.188 27.1452 157.058 30.3081C153.841 32.0125 150.327 32.9822 146.739 33.1554L132.058 48.4503ZM131.499 29.7449V40.0663L139.348 31.8865C136.429 30.8095 134.128 30.076 131.487 29.7572L131.499 29.7449ZM131.238 159.594H131.499V182.22C134.461 181.983 137.412 181.659 140.351 181.248C153.491 179.437 166.367 175.875 178.678 170.645C180 170.076 181.312 169.491 182.615 168.891C183.482 168.478 184.345 168.065 185.203 167.653C186.49 167.021 187.767 166.372 189.035 165.706C194.647 162.766 200.06 159.411 205.235 155.666C205.557 155.431 205.881 155.196 206.2 154.957C206.84 154.483 207.476 154.004 208.11 153.521C208.426 153.277 208.742 153.036 209.055 152.788L209.707 152.274C210.357 151.757 211.003 151.24 211.658 150.727C212.264 150.262 212.875 149.798 213.496 149.365V122.625H148.226C148.272 122.471 148.316 122.316 148.365 122.152C148.313 122.31 148.267 122.461 148.223 122.625H131.487V159.587L131.238 159.594ZM131.499 49.7254V86.0005H213.499V49.7316L131.499 49.7254ZM131.499 87.062V121.558H213.499V87.0682L131.499 87.062ZM115.104 30.8064L125.122 41.2454V29.7046C121.765 29.9275 118.426 30.2947 115.104 30.8064ZM45.345 87.0682V121.558H125.122V87.0682H45.345ZM64.6261 172.252C76.7171 177.166 89.359 180.369 102.229 181.778H102.284C104.715 182.052 107.155 182.265 109.603 182.415H109.693C114.82 182.725 119.968 182.796 125.107 182.592V122.622H45.345L45.6348 162.336L64.6261 172.252ZM23.2551 121.558H38.9885V87.0682H32.7653C32.1189 88.2783 31.4928 89.5008 30.8986 90.7356C30.5798 91.3948 30.2696 92.0633 29.9682 92.7318C25.8725 101.815 23.2696 111.787 23.2551 121.558ZM23.2551 122.622C23.3827 129.629 24.8609 136.509 28.1044 142.863C30.8001 148.124 34.545 152.766 38.9769 156.79V122.622H23.2551ZM33.3479 86.0005H38.9885V77.0253C36.9521 79.9017 35.069 82.8982 33.3479 86.0005ZM68.6783 48.667H123.241L123.438 48.4627L123.148 48.1532L107.806 32.1805C103.25 33.1917 98.751 34.476 94.3305 36.0275C93.9131 36.1729 93.4957 36.337 93.0812 36.4762C84.5513 39.568 76.3674 43.6564 68.6783 48.667ZM45.345 68.8982V86.0005H115.31H125.116V50.7188L123.997 49.7471H67.0841C59.0959 55.1051 51.7892 61.542 45.345 68.8982Z" fill="#12B2E5"/>
<path opacity="0.1" d="M283.154 68.0285V86.0005H309.719C309.719 85.8952 309.719 85.7869 309.693 85.691C309.67 85.4031 309.646 85.1184 309.62 84.8337C309.594 84.4994 309.559 84.1621 309.528 83.8279C309.496 83.4936 309.455 83.1006 309.415 82.7385C309.374 82.3764 309.339 82.0112 309.296 81.6491C309.252 81.287 309.212 80.9249 309.165 80.5659C309.119 80.2068 309.075 79.8448 309.026 79.4857C308.986 79.1763 308.945 78.8884 308.901 78.5913C308.841 78.1673 308.777 77.7464 308.71 77.3255C308.71 77.2636 308.69 77.1986 308.681 77.1398C308.199 74.0659 307.546 71.0255 306.725 68.0347L283.154 68.0285Z" fill="#12B2E5"/>
<path opacity="0.1" d="M309.803 87.0682H283.154V121.558H307.855C307.919 121.913 307.983 122.269 308.052 122.625H283.154V150.433L283.278 150.389C283.983 150.126 284.681 149.848 285.374 149.548L285.823 149.356C286.531 149.04 287.229 148.707 287.919 148.356C288.162 148.235 288.406 148.108 288.646 147.978C292.478 145.963 296.011 143.356 299.131 140.241C299.22 140.161 299.304 140.071 299.388 139.988C299.812 139.551 300.229 139.105 300.635 138.651C300.786 138.483 300.925 138.316 301.081 138.143C301.559 137.589 302.02 137.016 302.47 136.441C302.536 136.354 302.6 136.267 302.667 136.187C304.475 133.818 305.993 131.211 307.183 128.431C307.22 128.351 307.252 128.261 307.287 128.177C307.652 127.305 307.98 126.42 308.264 125.519C308.383 125.141 308.499 124.761 308.6 124.38C308.638 124.266 308.667 124.151 308.699 124.04C310.174 118.518 310.345 112.774 310.345 107.064C310.345 106.398 310.345 105.732 310.345 105.068C310.345 102.762 310.313 100.441 310.275 98.1231C310.275 97.5227 310.246 96.9223 310.235 96.3188C310.197 94.7899 310.148 93.2549 310.078 91.726C310.061 91.302 310.041 90.8749 310.017 90.454C310.017 90.2095 309.994 89.965 309.977 89.7205C309.925 88.8313 309.867 87.9472 309.803 87.0682Z" fill="#12B2E5"/>
<path opacity="0.1" d="M256.754 54.9279V86.0036H276.791V54.9279H273.936V44.4053H262.206V54.9279H256.754Z" fill="#187E9E"/>
<path opacity="0.1" d="M276.791 87.0682H256.754V121.558H276.791V87.0682Z" fill="#187E9E"/>
<path opacity="0.1" d="M276.791 122.625H256.754V151.302C259.124 151.949 261.531 152.435 263.959 152.757L264.559 152.828L265.429 152.912C265.719 152.937 266.009 152.961 266.298 152.98H266.388C266.516 152.98 266.646 152.98 266.777 152.998H266.91C267.067 152.998 267.226 153.014 267.383 153.017C267.609 153.017 267.832 153.017 268.058 153.036H268.348C268.571 153.036 268.794 153.036 269.023 153.036H269.516C269.649 153.036 269.785 153.036 269.919 153.036L270.426 153.017C270.696 153.017 270.971 152.992 271.243 152.974L271.748 152.937L272.377 152.884C272.817 152.847 273.246 152.797 273.693 152.742L274.217 152.67L274.475 152.636C274.913 152.574 275.345 152.503 275.783 152.423C276.107 152.37 276.429 152.305 276.754 152.243L276.791 122.625Z" fill="#187E9E"/>
<path opacity="0.1" d="M148.014 51.2574H131.49V86.0005H148.014V51.2574Z" fill="#187E9E"/>
<path opacity="0.1" d="M131.49 87.0682V121.558H213.501V106.684H169.817V115.458H148.012V87.0682H131.49Z" fill="#187E9E"/>
<path opacity="0.1" d="M131.226 159.606H131.487V182.22C134.449 181.983 137.4 181.659 140.339 181.248C153.49 179.439 166.376 175.876 178.696 170.642C182.218 169.136 185.671 167.492 189.052 165.709C194.658 162.764 200.066 159.409 205.238 155.666C206.529 154.731 207.801 153.773 209.055 152.791C209.925 152.11 210.794 151.411 211.664 150.736C212.27 150.269 212.881 149.808 213.504 149.371V122.625H148.243C148.29 122.464 148.333 122.316 148.38 122.149C148.33 122.306 148.284 122.458 148.241 122.625H131.487V159.59L131.226 159.606Z" fill="#12B2E5"/>
<path opacity="0.1" d="M88.3943 48.667H99.1595V45.4885H94.3305V36.0275C93.9131 36.1761 93.4928 36.337 93.0783 36.4763V45.4885H88.3943V48.667Z" fill="#187E9E"/>
<path opacity="0.1" d="M62.4464 86.0005H115.313H115.296H115.319H125.122V51.2574H122.345V76.9448H109.649V61.7397H99.1594V49.7347H88.3942V61.7397H77.9102V76.9387H62.4464V86.0005Z" fill="#187E9E"/>
<path opacity="0.1" d="M62.4464 87.0682V121.558H125.122V87.0682H62.4464ZM64.6348 172.252C76.7258 177.166 89.3677 180.369 102.238 181.778H102.293C104.724 182.052 107.163 182.265 109.612 182.415H109.701C114.829 182.725 119.977 182.796 125.116 182.592V122.622H62.4464V134.85H45.345L45.4348 162.153" fill="#12B2E5"/>
<path opacity="0.1" d="M37.884 122.625H23.2666C23.3941 129.629 24.8753 136.506 28.1188 142.86C30.8115 148.139 34.5594 152.763 38.9883 156.787V134.85H37.884V122.625Z" fill="#187E9E"/>
<path opacity="0.1" d="M23.2579 121.558H37.884V92.7318H29.9826C25.8753 101.815 23.2695 111.79 23.2579 121.558Z" fill="#187E9E"/>
<path opacity="0.1" d="M140.342 60.9165H131.49V71.8104H140.342V60.9165Z" fill="#187E9E"/>
<path opacity="0.1" d="M140.342 83.4936H131.49V86.0004H140.342V83.4936Z" fill="#187E9E"/>
<path opacity="0.1" d="M140.342 87.0682H131.49V94.3876H140.342V87.0682Z" fill="#187E9E"/>
<path opacity="0.1" d="M140.342 106.074H131.49V116.968H140.342V106.074Z" fill="#187E9E"/>
<path opacity="0.1" d="M140.342 128.654H131.49V139.548H140.342V128.654Z" fill="#187E9E"/>
<path opacity="0.1" d="M131.487 159.59L131.226 159.606H131.487V162.135H140.339V151.231H131.487V159.59Z" fill="#187E9E"/>
<path opacity="0.1" d="M131.487 173.805V182.22C134.449 181.983 137.4 181.659 140.339 181.248V173.821L131.487 173.805Z" fill="#187E9E"/>
<path opacity="0.1" d="M213.501 120.759H175.565V121.558H213.501V120.759Z" fill="#187E9E"/>
<path opacity="0.1" d="M213.501 122.625H175.565V125.692H213.501V122.625Z" fill="#187E9E"/>
<path opacity="0.1" d="M213.501 135.744H175.565V140.678H213.501V135.744Z" fill="#187E9E"/>
<path opacity="0.1" d="M175.562 150.714V155.666H205.238C206.529 154.732 207.801 153.773 209.055 152.791C209.925 152.11 210.794 151.414 211.664 150.736L175.562 150.714Z" fill="#187E9E"/>
<path opacity="0.1" d="M175.562 165.709V170.642H178.696C182.22 169.136 185.673 167.492 189.052 165.709H175.562Z" fill="#187E9E"/>
<path opacity="0.1" d="M102.241 97.501H109.707V90.4107H102.241V97.501Z" fill="#187E9E"/>
<path opacity="0.1" d="M263.945 64.4632H271.412V57.3729H263.945V64.4632Z" fill="#187E9E"/>
<path opacity="0.1" d="M263.945 80.9341H271.412V73.8438H263.945V80.9341Z" fill="#187E9E"/>
<path opacity="0.1" d="M263.945 97.402H271.412V90.3116H263.945V97.402Z" fill="#187E9E"/>
<path opacity="0.1" d="M263.945 113.873H271.412V106.783H263.945V113.873Z" fill="#187E9E"/>
<path opacity="0.1" d="M263.945 130.344H271.412V123.253H263.945V130.344Z" fill="#187E9E"/>
<path opacity="0.1" d="M263.945 146.812H271.412V139.721H263.945V146.812Z" fill="#187E9E"/>
<path opacity="0.1" d="M73.7304 97.501H81.197V90.4107H73.7304V97.501Z" fill="#187E9E"/>
<path opacity="0.1" d="M102.241 114.99H109.707V107.9H102.241V114.99Z" fill="#187E9E"/>
<path opacity="0.1" d="M73.7304 114.99H81.197V107.9H73.7304V114.99Z" fill="#187E9E"/>
<path opacity="0.1" d="M102.241 132.479H109.707V125.389H102.241V132.479Z" fill="#187E9E"/>
<path opacity="0.1" d="M73.7304 132.479H81.197V125.389H73.7304V132.479Z" fill="#187E9E"/>
<path opacity="0.1" d="M102.241 149.972H109.707V142.881H102.241V149.972Z" fill="#187E9E"/>
<path opacity="0.1" d="M73.7304 149.972H81.197V142.881H73.7304V149.972Z" fill="#187E9E"/>
<path opacity="0.1" d="M102.241 167.461H109.707V160.37H102.241V167.461Z" fill="#187E9E"/>
<path opacity="0.1" d="M73.7304 167.461H81.197V160.37H73.7304V167.461Z" fill="#187E9E"/>
<path opacity="0.1" d="M109.71 182.431V177.856H102.243V181.781L109.71 182.431Z" fill="#187E9E"/>
<path opacity="0.1" d="M283.154 77.1305V81.1879H308.71V77.1305H283.154ZM306.165 77.3874H308.261V80.9342H306.165V77.3874ZM303.62 77.3874H305.716V80.9342H303.62V77.3874ZM301.081 77.3874H303.177V80.9342H301.081V77.3874ZM298.536 77.3874H300.632V80.9342H298.536V77.3874ZM295.994 77.3874H298.099V80.9342H296.003L295.994 77.3874ZM293.449 77.3874H295.545V80.9342H293.461L293.449 77.3874ZM290.904 77.3874H293V80.9342H290.904V77.3874ZM288.362 77.3874H290.458V80.9342H288.362V77.3874ZM285.82 77.3874H287.916V80.9342H285.82V77.3874ZM283.278 77.3874H285.374V80.9342H283.278V77.3874Z" fill="#187E9E"/>
<path opacity="0.1" d="M283.154 88.9406V92.998H308.71V88.9406H283.154ZM306.165 89.1975H308.261V92.7411H306.165V89.1975ZM303.62 89.1975H305.716V92.7411H303.62V89.1975ZM301.081 89.1975H303.177V92.7411H301.081V89.1975ZM298.536 89.1975H300.632V92.7411H298.536V89.1975ZM295.994 89.1975H298.099V92.7411H296.003L295.994 89.1975ZM293.449 89.1975H295.545V92.7411H293.461L293.449 89.1975ZM290.904 89.1975H293V92.7411H290.904V89.1975ZM288.362 89.1975H290.458V92.7411H288.362V89.1975ZM285.82 89.1975H287.916V92.7411H285.82V89.1975ZM283.278 89.1975H285.374V92.7411H283.278V89.1975Z" fill="#187E9E"/>
<path opacity="0.1" d="M283.154 100.751V104.805H308.71V100.751H283.154ZM306.165 101.004H308.261V104.548H306.165V101.004ZM303.62 101.004H305.716V104.548H303.62V101.004ZM301.081 101.004H303.177V104.548H301.081V101.004ZM298.536 101.004H300.632V104.548H298.536V101.004ZM295.994 101.004H298.099V104.548H296.003L295.994 101.004ZM293.449 101.004H295.545V104.548H293.461L293.449 101.004ZM290.904 101.004H293V104.548H290.904V101.004ZM288.362 101.004H290.458V104.548H288.362V101.004ZM285.82 101.004H287.916V104.548H285.82V101.004ZM283.278 101.004H285.374V104.548H283.278V101.004Z" fill="#12B2E5"/>
<path opacity="0.1" d="M283.154 112.558V116.609H308.71V112.558H283.154ZM306.165 112.808H308.261V116.361H306.165V112.808ZM303.62 112.808H305.716V116.361H303.62V112.808ZM301.081 112.808H303.177V116.361H301.081V112.808ZM298.536 112.808H300.632V116.361H298.536V112.808ZM295.994 112.808H298.099V116.361H296.003L295.994 112.808ZM293.449 112.808H295.545V116.361H293.461L293.449 112.808ZM290.904 112.808H293V116.361H290.904V112.808ZM288.362 112.808H290.458V116.361H288.362V112.808ZM285.82 112.808H287.916V116.361H285.82V112.808ZM283.278 112.808H285.374V116.361H283.278V112.808Z" fill="#12B2E5"/>
<path opacity="0.1" d="M283.154 124.361V128.431H307.183C307.217 128.351 307.252 128.261 307.284 128.177H306.165V124.618H308.261V125.503C308.383 125.126 308.499 124.745 308.6 124.361H283.154ZM303.62 124.618H305.716V128.162H303.62V124.618ZM301.081 124.618H303.177V128.162H301.081V124.618ZM298.536 124.618H300.632V128.162H298.536V124.618ZM295.994 124.618H298.099V128.162H296.003L295.994 124.618ZM293.449 124.618H295.545V128.162H293.461L293.449 124.618ZM290.904 124.618H293V128.162H290.904V124.618ZM288.362 124.618H290.458V128.162H288.362V124.618ZM285.82 124.618H287.916V128.162H285.82V124.618ZM283.278 124.618H285.374V128.162H283.278V124.618Z" fill="#187E9E"/>
<path opacity="0.1" d="M283.154 136.168V140.223H299.128C299.22 140.139 299.302 140.053 299.386 139.969H298.536V136.425H300.632V138.644L301.081 138.134V136.432H302.47C302.536 136.345 302.6 136.258 302.667 136.178L283.154 136.168ZM295.994 136.422H298.099V139.969H296.003L295.994 136.422ZM293.449 136.422H295.545V139.969H293.461L293.449 136.422ZM290.904 136.422H293V139.969H290.904V136.422ZM288.362 136.422H290.458V139.969H288.362V136.422ZM285.82 136.422H287.916V139.969H285.82V136.422ZM283.278 136.422H285.374V139.969H283.278V136.422Z" fill="#187E9E"/>
<path opacity="0.1" d="M283.154 147.978V150.433L283.278 150.389V148.223H285.374V149.541L285.82 149.343V148.238H287.916V148.362C288.162 148.242 288.406 148.115 288.646 147.985L283.154 147.978Z" fill="#187E9E"/>
<path opacity="0.1" d="M131.226 159.606H131.487H131.226ZM148.223 122.622C148.27 122.467 148.313 122.313 148.362 122.149C148.313 122.307 148.267 122.467 148.223 122.622ZM262.203 48.667V49.7316H273.933V48.667H262.203ZM131.226 159.606H131.487H131.226ZM148.223 122.622C148.27 122.467 148.313 122.313 148.362 122.149C148.313 122.307 148.267 122.467 148.223 122.622ZM131.226 159.606H131.487H131.226ZM148.223 122.622C148.27 122.467 148.313 122.313 148.362 122.149C148.313 122.307 148.267 122.467 148.223 122.622Z" fill="#187E9E"/>
<path opacity="0.1" d="M312 216.035H21.6029V226.997H312V216.035Z" fill="#187E9E"/>
<path d="M31.8348 146.341H30.3652V181.629H31.8348V146.341Z" fill="#187E9E"/>
<path d="M41.058 181.521L40.9652 183.112L40.8377 185.355L40.7826 186.284L40.6522 188.528L40.5971 189.456L40.4667 191.697L38.9855 217.214C38.9215 218.312 38.4686 219.343 37.7188 220.098C36.9689 220.852 35.9783 221.274 34.9478 221.278H27.2522C26.2232 221.274 25.2337 220.854 24.4841 220.101C23.7345 219.348 23.2806 218.32 23.2145 217.223L21.7304 191.706L21.6029 189.465L21.5478 188.537L21.4145 186.293L21.3623 185.365L21.2319 183.121L21.1391 181.53C21.1217 181.225 21.163 180.92 21.2603 180.633C21.3576 180.345 21.5089 180.083 21.705 179.86C21.901 179.638 22.1376 179.461 22.4002 179.34C22.6628 179.219 22.9459 179.156 23.2319 179.156H38.9681C39.2534 179.156 39.5357 179.218 39.7978 179.338C40.0598 179.458 40.296 179.635 40.4918 179.856C40.6875 180.078 40.8388 180.34 40.9362 180.626C41.0335 180.912 41.075 181.217 41.058 181.521Z" fill="#12B2E5"/>
<path d="M40.9681 183.112L40.8377 185.355H21.3623L21.2347 183.112H40.9681Z" fill="#9D9CB5"/>
<path d="M40.7855 186.29L40.655 188.537H21.5478L21.4174 186.29H40.7855Z" fill="#9D9CB5"/>
<path d="M40.5971 189.472L40.4696 191.715H21.7333L21.6029 189.472H40.5971Z" fill="#9D9CB5"/>
<path d="M18.9913 159.569C27.5392 166.17 31.0986 176.501 31.0986 176.501C31.0986 176.501 20.7971 176.123 12.258 169.519C3.71887 162.914 0.127563 152.587 0.127563 152.587C0.127563 152.587 10.4406 152.964 18.9913 159.569Z" fill="#187E9E"/>
<path d="M0.127563 152.587C0.127563 152.587 10.8203 158.925 14.2493 164.171C17.6783 169.417 31.087 176.501 31.087 176.501" stroke="#187E9E" stroke-width="2" stroke-miterlimit="10"/>
<path d="M24.5071 146.264C29.1622 149.857 31.0984 155.48 31.0984 155.48C31.0984 155.48 25.4926 155.273 20.8376 151.68C16.1825 148.087 14.2491 142.463 14.2491 142.463C14.2491 142.463 19.8549 142.668 24.5071 146.264Z" fill="#187E9E"/>
<path d="M14.2491 142.463C14.2491 142.463 20.0665 145.914 21.9361 148.768C23.8057 151.621 31.0984 155.48 31.0984 155.48" stroke="#187E9E" stroke-width="2" stroke-miterlimit="10"/>
<path d="M37.8609 155.193C32.5159 161.466 31.3855 169.661 31.3855 169.661C31.3855 169.661 38.9217 167.687 44.2667 161.413C49.6116 155.14 50.742 146.948 50.742 146.948C50.742 146.948 43.2058 148.919 37.8609 155.193Z" fill="#187E9E"/>
<path d="M50.742 146.948C50.742 146.948 43.7855 153.376 42.0087 157.808C40.2319 162.24 31.3855 169.661 31.3855 169.661" stroke="#187E9E" stroke-width="2" stroke-miterlimit="10"/>
<path opacity="0.2" d="M117.768 23.7315C120.936 23.7315 123.504 20.9894 123.504 17.6068C123.504 14.2242 120.936 11.482 117.768 11.482C114.6 11.482 112.032 14.2242 112.032 17.6068C112.032 20.9894 114.6 23.7315 117.768 23.7315Z" stroke="#187E9E" stroke-miterlimit="10"/>
<path opacity="0.2" d="M117.768 28.6772C123.494 28.6772 128.136 23.7208 128.136 17.6068C128.136 11.4928 123.494 6.53639 117.768 6.53639C112.042 6.53639 107.4 11.4928 107.4 17.6068C107.4 23.7208 112.042 28.6772 117.768 28.6772Z" stroke="#187E9E" stroke-miterlimit="10"/>
<path opacity="0.2" d="M117.768 35.0601C126.795 35.0601 134.113 27.2466 134.113 17.6081C134.113 7.96964 126.795 0.156113 117.768 0.156113C108.741 0.156113 101.423 7.96964 101.423 17.6081C101.423 27.2466 108.741 35.0601 117.768 35.0601Z" stroke="#187E9E" stroke-miterlimit="10"/>
<path d="M157.397 224.447C157.244 223.227 156.458 221.661 156.458 221.661L152.264 215.116H152.302C152.302 215.116 151.638 211.826 152.302 210.216C152.965 208.607 149.942 204.627 149.942 204.627C149.942 204.627 149.574 203.631 150.522 202.405C151.47 201.179 149.942 197.583 149.942 197.583C149.942 197.583 149.203 190.078 149.131 188.918C149.058 187.757 148.467 181.416 148.467 181.416L147.064 167.937L144.571 132.222L144.525 131.554C144.835 131.396 144.997 131.297 144.997 131.297L144.475 111.561L144.907 111.156C148.675 107.606 157.345 99.3951 157.261 99.2063C157.148 98.9773 156.209 85.4805 156.102 82.0916C156.007 79.6808 155.505 77.3082 154.62 75.0879C154.403 74.6361 153.777 71.6835 153.516 70.4208L153.403 69.8607C153.403 69.8607 150.858 64.8067 151.084 62.5103C151.31 60.2139 151.748 58.487 146.325 57.6854C146.325 57.6854 141.751 56.9767 139.058 55.0424C137.45 53.8854 135.7 52.971 133.858 52.3251C133.858 52.3251 132.861 50.4682 131.89 50.8272V46.8843C132.636 46.5724 133.277 46.0299 133.732 45.3264C134.187 44.6228 134.435 43.7902 134.444 42.9352V28.7328C134.428 27.5793 133.985 26.4794 133.21 25.675C132.436 24.8707 131.394 24.4276 130.313 24.4433H118.78C118.613 24.4478 118.446 24.4633 118.281 24.4897V17.9905C118.281 17.8966 118.263 17.8037 118.228 17.7175C118.193 17.6313 118.142 17.5536 118.078 17.4891C117.949 17.3539 117.775 17.2783 117.594 17.2787C117.415 17.2762 117.242 17.3497 117.113 17.4831C116.984 17.6165 116.91 17.799 116.907 17.9905V24.9509C116.264 25.3092 115.725 25.8476 115.346 26.5084C114.968 27.1691 114.765 27.9274 114.76 28.7019V42.9043C114.768 43.7589 115.016 44.5912 115.47 45.2948C115.924 45.9983 116.565 46.541 117.31 46.8533V50.6012C116.844 50.5424 116.151 50.886 115.362 52.6005C115.362 52.6005 111.415 54.9743 110.049 55.2435C108.684 55.5128 103.852 57.2707 103.852 57.2707C103.118 57.8208 102.242 58.1148 101.345 58.1125C99.832 58.1125 98.5769 61.5602 98.7624 63.4357C98.9479 65.3112 98.6494 66.6884 97.2494 66.7658C95.8494 66.8432 96.6146 69.839 96.6204 69.8607C96.603 69.9442 96.5566 70.1701 96.4899 70.4982C96.2175 71.8073 95.6204 74.6144 95.4117 75.0539C94.5204 77.2726 94.0136 79.6456 93.916 82.0576C93.8059 85.4619 92.8639 98.9432 92.7566 99.1722C92.687 99.3239 98.6291 104.991 102.812 108.949L103.415 109.518L101.493 128.252C101.493 128.252 101.493 130.35 103.47 131.922C103.47 132.136 103.47 132.362 103.446 132.591C103.362 134.757 103.194 137.434 102.867 138.131C102.287 139.369 102.423 145.939 102.423 145.939C102.423 145.939 101.844 159.343 101.096 160.794C100.348 162.246 100.209 165.313 100.432 165.926C100.655 166.538 99.6928 182.619 99.6928 182.619L98.9537 189.815C98.9537 189.815 99.1769 196.707 98.5131 196.862C97.8494 197.017 97.4783 201.761 97.4783 201.761C97.4783 201.761 95.1189 205.132 96.1508 206.357C97.1827 207.583 95.9972 208.118 95.8899 208.425C95.7827 208.731 93.6407 209.879 95.1914 214.166C95.2059 214.209 95.2262 214.246 95.2436 214.286C93.7943 216.381 89.1943 223.165 89.4725 224.19C89.6831 224.854 90.1226 225.407 90.7015 225.737C91.7827 226.412 93.6407 226.725 96.5914 225.737C101.499 224.091 101.131 222.902 101.131 222.902C101.131 222.902 101.168 220.99 103.197 220.835C105.226 220.68 106.739 218.73 106.739 218.73L106.502 217.802L106.174 216.524C106.215 216.143 106.464 215.518 107.586 215.162C109.284 214.627 108.841 211.259 108.841 211.259C108.841 211.259 108.693 207.734 109.42 207.276C110.148 206.818 109.861 200.997 109.861 200.997C109.861 200.997 110.675 196.785 111.855 193.95C113.035 191.115 114.438 174.273 114.438 174.273C114.438 174.273 115.394 166.003 116.281 163.629C117.168 161.255 117.98 154.592 117.98 154.592C117.98 154.592 123.441 143.565 123.513 141.114C123.513 141.114 124.22 138.818 124.902 141.346C125.583 143.875 127.571 149.922 127.571 149.922L129.49 157.35L131.777 168.451L133.252 177.795C133.252 177.795 133.035 181.354 133.623 182.592C134.212 183.83 135.026 186.649 134.583 187.187C134.139 187.726 135.47 190.248 135.838 190.784C136.206 191.319 135.838 202.656 135.838 202.656C135.838 202.656 137.533 212.302 139.968 213.986C140.139 214.101 140.319 214.198 140.507 214.277C140.473 215.323 140.438 216.722 140.484 217.452C140.479 217.616 140.505 217.779 140.56 217.932C140.78 218.241 143.29 220.303 143.806 220.303C144.322 220.303 146.165 221.646 146.241 222.296C146.316 222.946 151.635 225.7 152.386 225.781C153.136 225.861 156.791 226.545 157.313 225.471C157.438 225.147 157.467 224.789 157.397 224.447ZM144.331 86.4616L144.71 86.802C144.71 86.802 145.096 89.9619 145.374 90.9058C145.652 91.8498 145.319 93.6912 145.319 93.6912C145.319 93.6912 145.374 95.0127 145.704 95.6998C146.035 96.3869 145.055 97.8848 145.055 97.8848H144.157L143.867 86.0562L144.331 86.4616ZM104.377 96.6747C104.239 96.3703 104.218 96.0204 104.319 95.6998C104.398 95.5275 104.462 95.3471 104.507 95.1613C104.616 94.6789 104.683 94.1868 104.707 93.6912C104.708 93.6861 104.708 93.6809 104.707 93.6758C104.678 93.4962 104.394 91.8188 104.655 90.8904C104.916 89.9619 105.319 86.7865 105.319 86.7865L105.571 86.5606L106.151 86.0407C106.151 86.0407 106.168 85.8426 106.191 85.5176C106.316 88.303 106.415 91.3484 106.255 91.5155C105.965 91.825 104.89 94.8085 105.148 94.9199C105.232 94.957 105.116 96.1578 104.922 97.761C104.704 97.422 104.521 97.0588 104.377 96.6778V96.6747Z" fill="url(#paint0_linear)"/>
<path d="M118.432 18.3155V27.7022C118.432 27.891 118.362 28.0721 118.237 28.2056C118.112 28.3391 117.942 28.4141 117.765 28.4141C117.588 28.4141 117.419 28.3391 117.294 28.2056C117.169 28.0721 117.099 27.891 117.099 27.7022V18.3155C117.099 18.222 117.116 18.1294 117.149 18.0431C117.183 17.9567 117.232 17.8782 117.294 17.8121C117.356 17.746 117.429 17.6936 117.51 17.6578C117.591 17.6221 117.678 17.6037 117.765 17.6037C117.942 17.6053 118.11 17.6808 118.235 17.8139C118.36 17.9471 118.43 18.1272 118.432 18.3155Z" fill="#6F758D"/>
<path d="M131.632 43.4088V57.9949C131.629 59.1603 131.194 60.277 130.422 61.1011C129.65 61.9251 128.604 62.3895 127.513 62.3928H121.612C120.52 62.3903 119.473 61.9263 118.701 61.1022C117.928 60.278 117.493 59.1608 117.49 57.9949V43.4088C117.494 42.2431 117.929 41.1264 118.701 40.3025C119.474 39.4785 120.52 39.0142 121.612 39.011H127.513C128.604 39.0142 129.65 39.4786 130.422 40.3027C131.194 41.1267 131.629 42.2434 131.632 43.4088Z" fill="#EEC8C8"/>
<path d="M108.426 98.0674L107.298 112.923C107.298 112.923 105.606 111.286 103.414 109.15C99.3564 105.198 93.5883 99.5375 93.655 99.3889C93.7622 99.1599 94.6753 85.6817 94.7825 82.299C94.8774 79.8938 95.3679 77.5251 96.2318 75.3015C96.4347 74.8651 97.0144 72.0643 97.2782 70.7551C97.3622 70.3466 97.4115 70.0835 97.4115 70.0835L99.2927 69.2789C99.2927 69.2789 107.188 78.6842 107.188 78.8575C107.188 79.0308 106.652 86.2543 106.652 86.2543L106.09 86.7773L105.846 87.0001C105.846 87.0001 105.469 90.1569 105.2 91.1008C104.948 91.9984 105.223 93.6913 105.252 93.8677V93.8831C105.228 94.3775 105.162 94.8685 105.055 95.3501C105.011 95.5364 104.951 95.7177 104.875 95.8917C104.778 96.2114 104.798 96.5586 104.93 96.8635C105.079 97.2883 105.274 97.6933 105.51 98.0705L108.426 98.0674Z" fill="#C9D6A4"/>
<path d="M156.278 99.3858C156.362 99.5653 147.939 107.773 144.29 111.317L142.635 112.92L141.507 98.0643H144.406C144.406 98.0643 145.374 96.5726 145.052 95.8979C144.731 95.2232 144.675 93.8893 144.675 93.8893C144.675 93.8893 144.997 92.0541 144.731 91.1039C144.464 90.1538 144.084 87.0032 144.084 87.0032L143.716 86.6504L143.278 86.2419C143.278 86.2419 142.736 79.0277 142.736 78.8544C142.736 78.6811 150.632 69.2758 150.632 69.2758L152.51 70.0804C152.51 70.0804 152.554 70.2971 152.62 70.6406C152.875 71.8786 153.49 74.8496 153.693 75.2984C154.558 77.5217 155.048 79.8905 155.142 82.2959C155.258 85.6786 156.171 99.1568 156.278 99.3858Z" fill="#C9D6A4"/>
<path d="M156.313 225.459C155.812 226.53 152.255 225.843 151.536 225.768C150.817 225.694 145.643 222.936 145.571 222.29C145.499 221.643 143.707 220.3 143.209 220.3C142.71 220.3 140.272 218.235 140.055 217.929C140.003 217.776 139.979 217.615 139.983 217.452C139.907 216.196 140.055 212.959 140.055 212.959L150.441 213.578L155.49 221.674C155.49 221.674 156.249 223.221 156.4 224.459C156.461 224.794 156.431 225.141 156.313 225.459Z" fill="#333333"/>
<path opacity="0.1" d="M156.313 225.459C155.812 226.53 152.255 225.843 151.536 225.768C150.817 225.694 145.643 222.936 145.571 222.29C145.499 221.643 143.707 220.3 143.209 220.3C142.71 220.3 140.272 218.235 140.055 217.929C140.003 217.776 139.979 217.615 139.983 217.452C139.907 216.196 140.055 212.959 140.055 212.959L150.441 213.578L155.49 221.674C155.49 221.674 156.249 223.221 156.4 224.459C156.461 224.794 156.431 225.141 156.313 225.459Z" fill="#187E9E"/>
<path opacity="0.1" d="M156.313 225.459C155.812 226.53 152.255 225.843 151.536 225.768C150.817 225.694 145.644 222.936 145.571 222.29C145.499 221.643 143.707 220.3 143.209 220.3C142.71 220.3 140.273 218.235 140.055 217.929C140.003 217.776 139.979 217.615 139.983 217.452L143.351 219.73C143.351 219.73 145.499 221.185 146.073 222.064C146.646 222.943 151.162 224.741 151.536 224.775C151.826 224.806 154.783 224.199 156.4 224.465C156.46 224.799 156.43 225.143 156.313 225.459Z" fill="#187E9E"/>
<path d="M107.22 218.768C107.22 218.768 105.751 220.717 103.783 220.869C103.265 220.875 102.768 221.092 102.395 221.476C102.023 221.859 101.801 222.381 101.777 222.933C101.777 222.933 102.136 224.122 97.3739 225.765C94.5072 226.755 92.7043 226.443 91.6522 225.765C91.0859 225.43 90.6608 224.876 90.4638 224.218C90.142 222.995 96.4783 213.695 96.4783 213.695L102.243 213.311L106.362 215.301L106.991 217.817L107.22 218.768Z" fill="#333333"/>
<path opacity="0.1" d="M107.22 218.768C107.22 218.768 105.751 220.717 103.783 220.869C103.265 220.875 102.768 221.092 102.395 221.476C102.023 221.859 101.801 222.381 101.777 222.933C101.777 222.933 102.136 224.122 97.3739 225.765C94.5072 226.755 92.7043 226.443 91.6522 225.765C91.0859 225.43 90.6608 224.876 90.4638 224.218C90.142 222.995 96.4783 213.695 96.4783 213.695L102.243 213.311L106.362 215.301L106.991 217.817L107.22 218.768Z" fill="#187E9E"/>
<path opacity="0.1" d="M107.22 218.768C107.22 218.768 105.751 220.717 103.783 220.869C103.265 220.875 102.768 221.092 102.396 221.476C102.023 221.859 101.801 222.381 101.777 222.933C101.777 222.933 102.136 224.122 97.374 225.765C94.5073 226.755 92.7044 226.443 91.6522 225.765C94.3566 225.456 100.328 223.642 100.928 223.011C101.644 222.243 102.539 220.142 103.148 220.105C103.568 220.077 105.713 218.696 107 217.842L107.22 218.768Z" fill="#187E9E"/>
<path d="M151.432 210.241C150.788 211.847 151.432 215.134 151.432 215.134C151.432 215.134 141.835 215.673 139.472 213.989C137.11 212.305 135.461 202.671 135.461 202.671C135.461 202.671 135.817 191.356 135.461 190.818C135.104 190.279 133.815 187.76 134.243 187.228C134.672 186.695 133.884 183.86 133.313 182.638C132.742 181.416 132.954 177.897 132.954 177.897L131.522 168.569L129.301 157.48L127.441 150.052C127.441 150.052 125.507 144.011 124.849 141.485C124.191 138.96 123.501 141.256 123.501 141.256C123.432 143.704 118.13 154.716 118.13 154.716C118.13 154.716 117.342 161.367 116.481 163.738C115.62 166.108 114.693 174.368 114.693 174.368C114.693 174.368 113.333 191.189 112.186 194.018C111.038 196.847 110.272 201.065 110.272 201.065C110.272 201.065 110.562 206.877 109.844 207.335C109.125 207.793 109.264 211.312 109.264 211.312C109.264 211.312 109.693 214.676 108.044 215.215C106.394 215.753 106.684 216.895 106.684 216.895C106.684 216.895 97.5189 218.492 96.0116 214.218C94.5044 209.944 96.5913 208.79 96.6899 208.483C96.7884 208.177 97.9479 207.645 96.9421 206.419C95.9363 205.193 98.2319 201.829 98.2319 201.829C98.2319 201.829 98.5913 197.091 99.2348 196.936C99.8783 196.782 99.6638 189.902 99.6638 189.902L100.38 182.715C100.38 182.715 101.313 166.656 101.099 166.043C100.884 165.43 101.026 162.373 101.742 160.921C102.458 159.47 103.026 146.087 103.026 146.087C103.026 146.087 102.881 139.511 103.455 138.288C103.78 137.595 103.942 134.93 104.035 132.755C104.093 131.099 104.11 129.725 104.11 129.725L112.128 126.512L122.446 122.997L131.113 127.428L143.788 130.028L143.948 132.365L146.357 168.046L147.719 181.505C147.719 181.505 148.299 187.85 148.365 188.995C148.432 190.14 149.151 197.639 149.151 197.639C149.151 197.639 150.655 201.232 149.73 202.454C148.806 203.677 149.151 204.673 149.151 204.673C149.151 204.673 152.087 208.635 151.432 210.241Z" fill="#C9D6A4"/>
<path opacity="0.1" d="M136.406 56.2401L133.113 118.905L115.206 114.891L111.661 89.77L115.171 56.0483L117.815 56.4104L122.478 57.0448L127.096 57.3512L132.099 56.7539L136.406 56.2401Z" fill="#187E9E"/>
<path d="M136.406 56.7013L133.113 119.363L115.206 115.349L111.661 90.2281L115.171 56.5094L117.815 56.8684L122.478 57.5029L127.096 57.8092L132.099 57.2119L136.406 56.7013Z" fill="#187E9E"/>
<path d="M121.687 58.3818L128.133 58.6108L126.322 61.3188C126.322 61.3188 126.449 66.7906 127.31 68.3597C128.171 69.9288 127.919 94.1678 127.919 94.1678L126.214 97.6465L123.278 93.7469L123.313 61.7459L121.687 58.3818Z" fill="#333333"/>
<path opacity="0.1" d="M121.687 58.3818L128.133 58.6108L126.322 61.3188C126.322 61.3188 126.449 66.7906 127.31 68.3597C128.171 69.9288 127.919 94.1678 127.919 94.1678L126.214 97.6465L123.278 93.7469L123.313 61.7459L121.687 58.3818Z" fill="#187E9E"/>
<path opacity="0.1" d="M131.785 51.2697L125.771 58.3817L129.209 62.2039L134.901 56.2803L131.785 51.2697Z" fill="#187E9E"/>
<path d="M131.388 51.279L125.768 57.9207L129.206 61.7459L134.91 55.8192L132.125 51.3378C132.087 51.2728 132.035 51.2182 131.973 51.1785C131.912 51.1388 131.842 51.1152 131.771 51.1094C131.699 51.1037 131.627 51.1161 131.561 51.1455C131.494 51.175 131.435 51.2207 131.388 51.279Z" fill="#187E9E"/>
<path opacity="0.1" d="M123.229 58.0382L117.142 51.539L116.568 54.9402L119.362 62.3958L123.229 58.0382Z" fill="#187E9E"/>
<path d="M123.443 57.5802L117.357 51.0779L116.783 54.4822L119.577 61.9378L123.443 57.5802Z" fill="#187E9E"/>
<path opacity="0.1" d="M143.939 132.365C141.021 133.855 137.895 134.827 134.684 135.24C128.777 136.045 124.91 128.017 124.91 128.017L122.655 131.152C121.939 134.479 111.014 135.317 106.577 134.055C105.656 133.813 104.79 133.375 104.032 132.767C104.09 131.111 104.107 129.737 104.107 129.737L112.128 126.512L122.446 122.997L131.113 127.428L143.788 130.028L143.939 132.365Z" fill="#187E9E"/>
<path opacity="0.1" d="M136.403 56.6982L133.11 119.36L115.206 115.337L111.661 90.2188L115.171 56.4846L117.815 56.8436C117.747 58.0685 117.617 59.2886 117.426 60.4987C116.997 62.6403 119.646 77.8578 119.646 77.8578C119.646 77.8578 124.681 94.9199 126.951 92.4626C129.22 90.0052 132.429 77.016 132.429 77.016C134.615 72.1973 132.467 58.7036 132.304 58.4158C132.191 58.013 132.122 57.5976 132.099 57.1779L136.403 56.6982Z" fill="#187E9E"/>
<path opacity="0.1" d="M144.139 105.176L144.29 111.317L142.635 112.92L141.507 98.0643H143.977L144.139 105.176Z" fill="#187E9E"/>
<path opacity="0.1" d="M105.255 93.8645V93.88C105.231 94.3744 105.165 94.8654 105.058 95.347C105.058 95.2108 105.058 95.1334 105.035 95.1242C104.93 95.0746 105.055 94.5145 105.255 93.8645Z" fill="#187E9E"/>
<path opacity="0.1" d="M108.426 98.0674L107.298 112.923C107.298 112.923 105.606 111.286 103.414 109.15L103.675 106.52C103.675 106.52 104.6 100.051 104.936 96.8635C105.085 97.2883 105.28 97.6933 105.516 98.0705L108.426 98.0674Z" fill="#187E9E"/>
<path d="M118.139 51.3069C118.139 51.3069 117.067 49.6264 115.6 52.876C115.6 52.876 111.768 55.2467 110.444 55.5129C109.119 55.779 104.429 57.54 104.429 57.54C103.72 58.0884 102.867 58.3831 101.991 58.3818C100.525 58.3818 99.3073 61.8202 99.487 63.6957C99.6667 65.5712 99.3797 66.9453 98.0174 67.0227C96.6551 67.1001 97.4087 70.1176 97.4087 70.1176L106.47 81.2065C106.47 81.2065 107.049 91.4196 106.759 91.7291C106.47 92.0386 105.432 95.0159 105.684 95.1335C105.936 95.2511 104.322 106.529 104.322 106.529L102.136 128.431C102.136 128.431 102.136 132.099 106.577 133.361C111.017 134.624 121.939 133.782 122.655 130.455L124.91 127.32C124.91 127.32 128.777 135.367 134.684 134.547C140.591 133.727 144.354 131.452 144.354 131.452L143.707 105.186L143.278 86.2604L152.516 70.0897C152.516 70.0897 150.046 65.042 150.261 62.7487C150.475 60.4554 150.907 58.7253 145.644 57.9299C145.644 57.9299 141.203 57.2243 138.588 55.2931C137.033 54.139 135.334 53.2253 133.539 52.5789C133.539 52.5789 132.351 50.2887 131.325 51.2791C131.325 51.2791 132.073 54.7948 131.983 55.4262C131.893 56.0575 132.142 58.8491 132.304 59.14C132.467 59.431 134.623 72.9215 132.429 77.7403C132.429 77.7403 129.22 90.7387 126.951 93.1837C124.681 95.6286 119.646 78.579 119.646 78.579C119.646 78.579 116.997 63.3645 117.426 61.2229C117.855 59.0812 118.139 51.3069 118.139 51.3069Z" fill="#C9D6A4"/>
<path d="M125.806 101.435C126.677 101.435 127.383 100.681 127.383 99.751C127.383 98.8212 126.677 98.0674 125.806 98.0674C124.935 98.0674 124.229 98.8212 124.229 99.751C124.229 100.681 124.935 101.435 125.806 101.435Z" fill="#333333"/>
<path d="M125.806 109.367C126.677 109.367 127.383 108.613 127.383 107.683C127.383 106.753 126.677 106 125.806 106C124.935 106 124.229 106.753 124.229 107.683C124.229 108.613 124.935 109.367 125.806 109.367Z" fill="#333333"/>
<path opacity="0.1" d="M125.806 101.435C126.677 101.435 127.383 100.681 127.383 99.751C127.383 98.8212 126.677 98.0674 125.806 98.0674C124.935 98.0674 124.229 98.8212 124.229 99.751C124.229 100.681 124.935 101.435 125.806 101.435Z" fill="#187E9E"/>
<path opacity="0.1" d="M125.806 109.367C126.677 109.367 127.383 108.613 127.383 107.683C127.383 106.753 126.677 106 125.806 106C124.935 106 124.229 106.753 124.229 107.683C124.229 108.613 124.935 109.367 125.806 109.367Z" fill="#187E9E"/>
<path opacity="0.1" d="M139.962 207.948C139.962 207.948 146.429 208.483 147.075 209.019C147.722 209.554 139.962 207.948 139.962 207.948Z" fill="#187E9E"/>
<path opacity="0.1" d="M101.455 202.52C101.455 202.52 102.817 204.355 102.243 205.197C101.669 206.038 101.455 202.52 101.455 202.52Z" fill="#187E9E"/>
<path opacity="0.1" d="M103.102 209.127C103.102 209.127 105.609 207.369 106.612 208.539C107.615 209.709 103.102 209.127 103.102 209.127Z" fill="#187E9E"/>
<path opacity="0.1" d="M131.632 43.4088V47.8252C131.115 48.0676 130.556 48.1931 129.991 48.1935H119.136C118.569 48.1938 118.008 48.0673 117.49 47.8221V43.4088C117.494 42.2431 117.929 41.1264 118.701 40.3025C119.474 39.4785 120.52 39.0142 121.612 39.011H127.513C128.604 39.015 129.65 39.4797 130.421 40.3035C131.193 41.1274 131.628 42.2437 131.632 43.4088Z" fill="#187E9E"/>
<path opacity="0.1" d="M118.432 24.4434V27.7054C118.432 27.8942 118.362 28.0752 118.237 28.2087C118.112 28.3422 117.942 28.4172 117.765 28.4172C117.588 28.4172 117.419 28.3422 117.294 28.2087C117.169 28.0752 117.099 27.8942 117.099 27.7054V24.9602C117.51 24.7031 117.962 24.5279 118.432 24.4434Z" fill="#187E9E"/>
<path d="M130.632 24.7404H118.493C116.572 24.7404 115.015 26.4032 115.015 28.4543V43.7461C115.015 45.7972 116.572 47.4599 118.493 47.4599H130.632C132.553 47.4599 134.11 45.7972 134.11 43.7461V28.4543C134.11 26.4032 132.553 24.7404 130.632 24.7404Z" fill="#DCDFED"/>
<path opacity="0.1" d="M129.983 39.9178V49.1807H119.136V39.8992C119.848 39.3224 120.718 39.0105 121.612 39.011H127.513C128.407 39.0185 129.274 39.3369 129.983 39.9178Z" fill="#187E9E"/>
<path opacity="0.1" d="M130.11 24.7404H118.919V48.4317H130.11V24.7404Z" fill="#187E9E"/>
<path d="M129.991 24.7404H119.136V48.4317H129.991V24.7404Z" fill="#EEC8C8"/>
<path d="M123.444 32.914H119.933V33.6073H123.444V32.914Z" fill="#DCDFED"/>
<path d="M129.281 32.914H125.771V33.6073H129.281V32.914Z" fill="#DCDFED"/>
<path d="M127.525 40.5708H121.6V40.9855H127.525V40.5708Z" fill="#DCDFED"/>
<path d="M199.061 66.0571L203.258 88.1978C203.306 88.4433 203.427 88.6657 203.602 88.8328C203.777 88.9998 203.998 89.1026 204.232 89.1263L207.029 89.4172C207.235 89.8036 207.422 90.2013 207.588 90.6088C208.087 91.8467 208.412 93.3322 209.487 94.0657C210.067 94.6847 211.374 94.5764 212.122 94.5795C212.908 94.5485 213.692 94.6648 214.441 94.923C214.354 94.9122 214.266 94.9122 214.18 94.923C214.667 95.131 215.138 95.3794 215.588 95.6658C215.623 95.7153 215.661 95.7648 215.69 95.8143C215.809 96.0093 215.904 96.2445 216.104 96.3405C216.046 96.4643 216.322 96.4674 216.762 96.4024C216.806 96.4107 216.847 96.4252 216.887 96.4457C217.005 96.5299 217.104 96.6409 217.177 96.7707C217.904 97.8043 219.255 98.0612 220.472 98.0953C221.69 98.1293 222.977 98.0396 224.049 98.6554C224.304 98.8009 224.542 98.9835 224.809 99.1073C224.795 99.2424 224.799 99.3791 224.823 99.5127C224.949 99.9408 225.112 100.355 225.31 100.751C225.408 100.952 225.462 101.174 225.467 101.4C225.472 101.626 225.428 101.851 225.339 102.057C225.249 102.224 225.104 102.366 225.012 102.521C224.887 102.791 224.824 103.089 224.829 103.391C224.745 104.799 224.664 106.235 225.023 107.59C225.232 108.38 225.586 109.2 225.354 109.98C225.215 110.45 224.87 110.849 224.82 111.338C224.771 111.827 225.061 112.341 225.232 112.833C225.635 114 225.415 115.399 225.136 116.603C225.154 116.613 225.172 116.622 225.191 116.63C224.987 116.888 224.817 117.174 224.687 117.482C224.243 118.5 224.272 119.673 224.304 120.793C224.365 122.901 224.432 125.033 224.98 127.057C225.073 127.345 225.137 127.643 225.171 127.945C225.18 128.231 225.156 128.517 225.101 128.796C224.971 129.607 224.812 130.415 224.623 131.214C224.518 131.555 224.475 131.916 224.499 132.275C224.554 132.742 224.829 133.148 225.012 133.581C225.739 135.308 224.957 137.434 225.664 139.17C225.832 139.582 226.078 139.953 226.223 140.374C226.542 141.303 226.362 142.306 226.47 143.271C226.585 143.954 226.742 144.628 226.939 145.289C227.452 147.437 226.603 149.727 227.099 151.881C227.522 153.738 227.951 155.595 227.968 157.486C227.994 158.807 227.823 160.129 227.968 161.441C228.113 162.753 228.623 164.106 229.675 164.805C230.235 165.146 230.861 165.343 231.504 165.381C232.751 172.304 232.678 179.441 233.762 186.401C233.98 187.806 234.246 189.187 234.38 190.62C234.997 197.243 232.681 203.671 231.374 210.216L231.165 210.353C229.557 211.423 227.843 212.63 227.206 214.525C227.009 215.109 226.962 215.855 227.403 216.267C227.567 216.381 227.722 216.509 227.867 216.651C228.217 217.103 227.91 217.913 228.333 218.285C228.61 218.334 228.89 218.365 229.171 218.378C228.978 218.869 228.785 219.361 228.591 219.854C228.415 220.29 228.235 220.767 228.345 221.228C228.446 221.521 228.581 221.798 228.748 222.054C229.052 222.751 229.193 223.515 229.159 224.283C229.134 224.537 229.199 224.792 229.342 224.998C229.422 225.076 229.514 225.138 229.614 225.18C230.904 225.784 232.319 226.016 233.719 225.853C235.119 225.69 236.454 225.138 237.591 224.252C237.701 224.177 237.794 224.078 237.864 223.961C237.899 223.881 237.925 223.797 237.942 223.71C238.125 222.909 238.31 222.107 238.493 221.305C238.516 221.213 238.536 221.117 238.559 221.024C238.774 220.077 238.991 219.133 239.209 218.186C239.499 216.855 239.814 215.521 240.026 214.162C240.026 214.918 240.026 215.67 240.026 216.425V219.068C240.02 219.457 240.032 219.847 240.064 220.235C240.368 220.235 240.672 220.235 240.977 220.235C240.999 220.238 241.021 220.235 241.042 220.226C241.062 220.216 241.08 220.201 241.093 220.182C241.134 220.085 241.154 219.979 241.151 219.873C241.195 218.907 241.227 217.939 241.246 216.97C241.284 215.274 241.29 213.565 241.261 211.875C241.261 211.492 241.296 210.702 241.238 210.173C241.387 209.798 241.511 209.413 241.609 209.019C241.757 208.486 241.899 207.948 242.02 207.406C242.213 207.378 242.408 207.378 242.6 207.406C242.606 210.532 242.321 213.65 241.751 216.716C242.313 217.276 243.307 216.951 243.759 216.282C244.212 215.614 244.27 214.735 244.339 213.93C244.551 211.244 244.957 208.579 245.365 205.918C245.408 205.459 245.531 205.013 245.728 204.602C245.922 204.25 246.226 203.983 246.397 203.606C246.577 203.136 246.631 202.621 246.554 202.12C246.449 200.947 246.177 199.753 245.504 198.812C244.872 197.93 243.823 197.329 242.794 197.459L242.73 197.336C242.133 196.057 242.194 194.55 242.27 193.139C242.353 191.534 242.438 189.929 242.525 188.323C242.771 186.553 242.965 184.783 243.081 183.009C243.371 181.87 243.762 180.763 244.023 179.605C244.023 178.482 244.397 177.312 244.409 176.157C244.413 174.956 244.329 173.757 244.157 172.57C243.826 170.132 243.229 167.745 242.733 165.344C242.652 164.938 242.6 164.508 242.545 164.084C242.881 163.875 243.19 163.621 243.467 163.329C242.959 159.12 242.499 154.602 244.365 150.851C244.919 149.743 245.675 148.684 245.87 147.446C245.919 147.137 245.933 146.809 245.994 146.496C246.08 146.127 246.201 145.768 246.357 145.425L250.049 136.496L250.646 135.06C251.287 133.513 251.928 131.966 252.475 130.366C253.119 128.509 253.635 126.581 254.119 124.665C254.409 123.517 254.699 122.347 254.678 121.158C254.625 120.103 254.392 119.067 253.991 118.101C253.904 117.881 253.812 117.664 253.701 117.448C253.814 117.41 253.925 117.383 254.035 117.345C254.281 115.473 254.49 113.409 253.501 111.843C253.308 111.594 253.153 111.314 253.041 111.013C252.864 110.373 253.246 109.72 253.368 109.064C253.617 107.723 252.771 106.464 252.046 105.334C251.936 105.183 251.849 105.014 251.791 104.833C251.658 104.319 251.951 103.747 251.957 103.227C251.957 103.088 251.929 102.952 251.872 102.827C254.67 103.001 257.429 103.781 260.235 103.895C262.012 103.969 264.003 103.672 265.13 102.224C265.852 101.295 266.11 100.073 266.18 98.8783C266.307 96.6778 265.89 94.4866 265.542 92.3109C265.316 90.8347 265.136 89.3491 264.994 87.8574C265.284 87.8853 265.574 87.9007 265.864 87.9007C267.525 87.9007 269.252 87.6408 270.626 86.6628C272 85.6848 272.919 83.8186 272.487 82.1195C272.243 81.1601 271.617 80.3678 271.159 79.5043C269.542 76.4559 270 72.578 271.391 69.3996C272.043 67.8954 272.907 66.3356 272.646 64.7015C272.275 62.4113 269.965 61.2198 268.232 59.7962C266.725 58.5323 265.535 56.8893 264.768 55.0141C264.001 53.139 263.681 51.0901 263.838 49.0507C263.971 47.5435 264.357 45.9559 263.791 44.5663C263.183 43.0776 261.678 42.2946 260.412 41.3909C258.444 39.9804 256.858 38.0435 255.812 35.7737C255.165 34.3624 254.632 33.0688 253.107 32.586C251.881 32.2425 250.596 32.2171 249.359 32.5117L249.614 32.3817C249.499 32.4034 249.383 32.4281 249.272 32.456L249.093 32.5086C247.925 32.2373 246.716 32.2447 245.551 32.5303C243.194 33.1338 240.623 34.9412 238.693 36.4298C238.115 36.8592 237.584 37.3564 237.11 37.9123C237.061 37.9711 237.006 38.0237 236.957 38.0825C236.724 38.3563 236.529 38.6636 236.377 38.9955C236.276 39.2376 236.202 39.4909 236.154 39.7506C235.954 40.4646 235.872 41.2103 235.913 41.9542C235.809 42.1089 235.707 42.2637 235.623 42.4277C234.391 44.5145 233.953 47.0251 234.398 49.4455C234.843 51.866 236.138 54.0132 238.017 55.4478C237.67 56.2925 237.26 57.1059 236.791 57.8804C236.293 58.7408 235.765 59.5857 235.226 60.4182L229.429 62.337C229.064 62.4608 228.699 62.5815 228.348 62.7394C227.923 62.9321 227.525 63.1862 227.165 63.4945C226.584 63.9831 226.133 64.6247 225.854 65.3561C225.576 66.0875 225.48 66.8837 225.577 67.6664C225.603 67.8274 225.638 67.9759 225.672 68.143C225.499 69.0901 225.365 70.0526 225.232 71.0089C225.058 72.2994 224.884 73.59 224.725 74.8837C224.13 76.1655 223.869 77.595 223.971 79.0215C223.991 79.8837 224.061 80.7438 224.183 81.5965C224.162 82.3547 224.154 83.113 224.183 83.8712C224.238 84.8328 224.238 85.7971 224.183 86.7587C224.083 87.6369 223.922 88.5059 223.701 89.3584C223.693 89.4363 223.67 89.5115 223.633 89.5792C223.596 89.6469 223.546 89.7056 223.487 89.7515L223.42 89.77L223.032 89.7298L222.603 89.6772C222.602 89.6119 222.597 89.5468 222.588 89.4822L218.017 65.6052C217.964 65.341 217.827 65.1045 217.63 64.9354C217.432 64.7663 217.186 64.675 216.933 64.6768H200.142C199.981 64.6768 199.823 64.7144 199.677 64.7871C199.531 64.8597 199.403 64.9656 199.299 65.0972C199.196 65.2289 199.122 65.383 199.08 65.5489C199.039 65.7147 199.032 65.8882 199.061 66.0571ZM252.255 94.564C252.291 94.4653 252.332 94.3691 252.38 94.2762C252.551 93.9667 252.8 93.7129 252.959 93.4003C253.041 93.2242 253.083 93.0304 253.083 92.834C253.083 92.6375 253.041 92.4437 252.959 92.2676C252.794 91.9581 253.249 91.6641 253.383 91.3391C253.445 91.0774 253.46 90.8053 253.426 90.5376C253.477 90.0872 253.64 89.6596 253.899 89.2996C254.217 88.7611 254.539 88.2288 254.867 87.6965C254.962 87.5355 255.064 87.387 255.157 87.2199C255.21 87.3264 255.269 87.4298 255.333 87.5293C255.571 87.8158 255.753 88.1505 255.867 88.5135C255.887 88.7679 255.887 89.0236 255.867 89.278C255.867 90.0702 256.336 90.7666 256.693 91.466C257.049 92.1655 257.31 93.0413 256.939 93.7315C256.809 93.9729 256.649 94.3505 256.872 94.4619C256.997 94.5238 257.162 94.4619 257.27 94.5485C257.42 94.694 257.214 94.9385 257.026 95.0282C256.405 95.3145 255.735 95.4622 255.058 95.4622C254.381 95.4622 253.711 95.3145 253.09 95.0282C252.829 94.8828 252.545 94.7157 252.255 94.564ZM216.603 90.4231L221.241 90.909C220.856 91.11 220.43 91.2038 220.003 91.1813L218.878 90.8223C218.878 90.8223 218.878 90.9028 218.841 91.0389C218.629 90.9801 218.414 90.9244 218.203 90.8718C217.661 90.7356 217.128 90.584 216.597 90.4231H216.603Z" fill="url(#paint1_linear)"/>
<path d="M252.328 36.8228C253.361 39.0714 254.928 40.9919 256.873 42.3936C258.128 43.2942 259.612 44.0741 260.215 45.5535C260.777 46.9338 260.394 48.5153 260.264 50.0163C260.107 52.0423 260.422 54.0783 261.18 55.9429C261.939 57.8075 263.118 59.4427 264.612 60.7029C266.325 62.1173 268.612 63.3057 268.977 65.5836C269.238 67.2084 268.397 68.762 267.736 70.2568C266.374 73.4198 265.907 77.276 267.507 80.3059C267.962 81.1694 268.577 81.9555 268.82 82.9087C269.249 84.6016 268.339 86.4461 266.98 87.4303C265.62 88.4145 263.913 88.6683 262.273 88.6683C261.078 88.6683 259.786 88.4764 258.939 87.582C258.359 86.9816 258.087 86.1459 257.82 85.3444L255.745 79.0803C255.368 77.9538 254.974 76.7839 254.188 75.9297C252.525 74.1161 249.806 74.308 247.429 74.339C243.926 74.3833 240.442 73.7963 237.122 72.6027C235.18 71.9033 233.064 70.7118 232.615 68.5794C232.171 66.4935 233.507 64.5065 234.684 62.7765C235.565 61.487 236.398 60.1613 237.183 58.7996C237.948 57.475 238.681 56.0823 238.89 54.5441C239.241 51.9878 238.119 49.5057 237.249 47.0948C236.38 44.6838 235.774 41.8335 237.038 39.6299C237.583 38.7725 238.279 38.0367 239.087 37.4635C240.986 35.981 243.536 34.186 245.867 33.5825C247.116 33.2711 248.417 33.2902 249.658 33.6382C251.159 34.1241 251.687 35.4085 252.328 36.8228Z" fill="#333333"/>
<path d="M226.742 66.676C226.276 68.3722 225.945 70.1074 225.754 71.863C225.174 76.1061 224.594 80.374 224.704 84.6573C224.758 85.6148 224.758 86.5749 224.704 87.5324C224.605 88.4051 224.447 89.2689 224.229 90.1166C224.221 90.1942 224.198 90.2691 224.161 90.3363C224.124 90.4036 224.074 90.4616 224.014 90.5066C223.878 90.5778 223.725 90.5066 223.565 90.488C223.049 90.4199 222.67 90.9522 222.27 91.3113C221.88 91.6467 221.405 91.8475 220.906 91.8868C220.407 91.926 219.909 91.8019 219.478 91.531C219.611 92.1607 219.569 92.8179 219.357 93.4224C219.145 94.0269 218.774 94.5526 218.287 94.9354C217.793 95.3085 217.23 95.5633 216.636 95.6824C216.042 95.8015 215.43 95.7821 214.844 95.6255C215.438 95.5265 216.003 95.9721 216.339 96.5137C216.455 96.7087 216.548 96.9408 216.745 97.0368C216.942 97.1327 217.287 97.012 217.519 97.142C217.635 97.2223 217.734 97.3277 217.809 97.4515C218.528 98.4821 219.864 98.7359 221.067 98.7699C222.27 98.804 223.542 98.7173 224.603 99.327C224.855 99.4966 225.116 99.6525 225.383 99.7943C226.217 100.163 227.214 99.7943 227.864 99.1351C228.513 98.4759 228.872 97.5443 229.139 96.6252C230.212 92.9113 230.009 88.9158 229.783 85.0287C229.429 78.8451 228.693 72.5161 226.742 66.676Z" fill="#187E9E"/>
<path opacity="0.1" d="M226.742 66.676C226.276 68.3722 225.945 70.1074 225.754 71.863C225.174 76.1061 224.594 80.374 224.704 84.6573C224.758 85.6148 224.758 86.5749 224.704 87.5324C224.605 88.4051 224.447 89.2689 224.229 90.1166C224.221 90.1942 224.198 90.2691 224.161 90.3363C224.124 90.4036 224.074 90.4616 224.014 90.5066C223.878 90.5778 223.725 90.5066 223.565 90.488C223.049 90.4199 222.67 90.9522 222.27 91.3113C221.88 91.6467 221.405 91.8475 220.906 91.8868C220.407 91.926 219.909 91.8019 219.478 91.531C219.611 92.1607 219.569 92.8179 219.357 93.4224C219.145 94.0269 218.774 94.5526 218.287 94.9354C217.793 95.3085 217.23 95.5633 216.636 95.6824C216.042 95.8015 215.43 95.7821 214.844 95.6255C215.438 95.5265 216.003 95.9721 216.339 96.5137C216.455 96.7087 216.548 96.9408 216.745 97.0368C216.942 97.1327 217.287 97.012 217.519 97.142C217.635 97.2223 217.734 97.3277 217.809 97.4515C218.528 98.4821 219.864 98.7359 221.067 98.7699C222.27 98.804 223.542 98.7173 224.603 99.327C224.855 99.4966 225.116 99.6525 225.383 99.7943C226.217 100.163 227.214 99.7943 227.864 99.1351C228.513 98.4759 228.872 97.5443 229.139 96.6252C230.212 92.9113 230.009 88.9158 229.783 85.0287C229.429 78.8451 228.693 72.5161 226.742 66.676Z" fill="#187E9E"/>
<path d="M244.339 179.887C244.049 181.227 243.542 182.514 243.272 183.864C243.072 185.022 242.954 186.195 242.919 187.373L242.609 193.34C242.533 194.754 242.472 196.243 243.061 197.512C243.47 198.391 244.177 199.128 244.38 200.087C244.693 201.588 243.687 203.002 242.748 204.169L238.11 209.898C236.661 211.693 235.075 213.581 232.928 214.19C232.607 214.305 232.263 214.318 231.936 214.227C231.336 214.017 231.046 213.243 231.133 212.575C231.27 211.915 231.552 211.299 231.957 210.78C233.168 208.963 234.47 207.174 235.258 205.107C236.258 202.479 236.359 199.567 236.299 196.729C236.07 185.16 233.336 173.725 233.646 162.165C236.012 161.974 238.47 161.546 240.838 161.577C242.951 161.602 242.699 163.902 243.067 165.709C243.556 168.101 244.145 170.472 244.475 172.898C244.644 174.079 244.727 175.272 244.722 176.467C244.71 177.606 244.339 178.769 244.339 179.887Z" fill="#FBBEBE"/>
<path opacity="0.05" d="M244.339 179.887C244.049 181.227 243.542 182.514 243.272 183.864C243.072 185.022 242.954 186.195 242.919 187.373L242.609 193.34C242.533 194.754 242.472 196.243 243.061 197.512C243.47 198.391 244.177 199.128 244.38 200.087C244.693 201.588 243.687 203.002 242.748 204.169L238.11 209.898C236.661 211.693 235.075 213.581 232.928 214.19C232.607 214.305 232.263 214.318 231.936 214.227C231.336 214.017 231.046 213.243 231.133 212.575C231.27 211.915 231.552 211.299 231.957 210.78C233.168 208.963 234.47 207.174 235.258 205.107C236.258 202.479 236.359 199.567 236.299 196.729C236.07 185.16 233.336 173.725 233.646 162.165C236.012 161.974 238.47 161.546 240.838 161.577C242.951 161.602 242.699 163.902 243.067 165.709C243.556 168.101 244.145 170.472 244.475 172.898C244.644 174.079 244.727 175.272 244.722 176.467C244.71 177.606 244.339 178.769 244.339 179.887Z" fill="#187E9E"/>
<path d="M242.939 197.661C244.015 197.425 245.142 198.047 245.806 198.982C246.47 199.917 246.739 201.105 246.844 202.275C246.92 202.773 246.867 203.284 246.69 203.751C246.519 204.113 246.22 204.392 246.026 204.742C245.832 205.151 245.71 205.594 245.667 206.051C245.267 208.697 244.864 211.349 244.652 214.02C244.588 214.834 244.528 215.698 244.072 216.36C243.617 217.022 242.646 217.35 242.09 216.79C242.653 213.741 242.933 210.641 242.928 207.533C241.664 207.348 240.565 208.409 239.739 209.446C238.895 210.506 238.12 211.627 237.42 212.801C236.783 213.881 236.2 215.01 235.391 215.948C234.563 216.887 233.532 217.595 232.389 218.013C231.246 218.43 230.025 218.544 228.832 218.344C228.415 217.975 228.719 217.168 228.371 216.719C228.233 216.575 228.083 216.443 227.925 216.326C227.49 215.917 227.533 215.178 227.73 214.596C228.362 212.708 230.049 211.501 231.643 210.446C234.525 208.514 237.441 206.611 240.339 204.739C241.448 204.014 242.293 202.908 242.736 201.603C242.841 201.282 243.293 197.534 242.939 197.661Z" fill="#333333"/>
<path opacity="0.05" d="M242.939 197.661C244.015 197.425 245.142 198.047 245.806 198.982C246.47 199.917 246.739 201.105 246.844 202.275C246.92 202.773 246.867 203.284 246.69 203.751C246.519 204.113 246.22 204.392 246.026 204.742C245.832 205.151 245.71 205.594 245.667 206.051C245.267 208.697 244.864 211.349 244.652 214.02C244.588 214.834 244.528 215.698 244.072 216.36C243.617 217.022 242.646 217.35 242.09 216.79C242.653 213.741 242.933 210.641 242.928 207.533C241.664 207.348 240.565 208.409 239.739 209.446C238.895 210.506 238.12 211.627 237.42 212.801C236.783 213.881 236.2 215.01 235.391 215.948C234.563 216.887 233.532 217.595 232.389 218.013C231.246 218.43 230.025 218.544 228.832 218.344C228.415 217.975 228.719 217.168 228.371 216.719C228.233 216.575 228.083 216.443 227.925 216.326C227.49 215.917 227.533 215.178 227.73 214.596C228.362 212.708 230.049 211.501 231.643 210.446C234.525 208.514 237.441 206.611 240.339 204.739C241.448 204.014 242.293 202.908 242.736 201.603C242.841 201.282 243.293 197.534 242.939 197.661Z" fill="#187E9E"/>
<path d="M243.409 176.529C243.988 184.266 242.365 191.954 240.922 199.552C240.785 200.16 240.711 200.783 240.701 201.408C240.758 202.182 240.876 202.949 241.052 203.702C241.597 206.837 240.899 210.052 240.206 213.157C239.722 215.304 239.046 217.731 237.168 218.669C235.844 219.331 234.296 219.043 232.861 218.74C232.387 218.687 231.936 218.494 231.559 218.183C231.044 217.663 231.023 216.805 231.067 216.05C231.565 207.518 235.612 199.338 234.835 190.827C234.704 189.419 234.441 188.026 234.223 186.63C233.104 179.391 233.238 171.961 231.82 164.784C231.751 164.535 231.751 164.271 231.82 164.022C231.943 163.776 232.137 163.58 232.374 163.462C233.684 162.627 235.084 161.881 236.594 161.655C237.774 161.478 239.261 161.615 240.252 162.398C241.293 163.218 241.362 164.982 241.667 166.269C242.446 169.636 243.148 173.053 243.409 176.529Z" fill="#FBBEBE"/>
<path d="M241.513 219.938C241.517 220.044 241.497 220.15 241.455 220.247C241.443 220.266 241.426 220.282 241.406 220.291C241.386 220.301 241.364 220.305 241.342 220.303C241.052 220.303 240.739 220.303 240.441 220.303C240.408 219.916 240.395 219.527 240.4 219.139V216.511C240.4 214.426 240.4 212.336 240.487 210.263C240.486 210.187 240.497 210.112 240.519 210.04C240.539 209.994 240.574 209.958 240.617 209.938C240.832 209.83 241.333 209.495 241.519 209.882C241.704 210.269 241.62 211.476 241.629 211.981C241.658 213.667 241.655 215.36 241.629 217.047C241.594 218.01 241.556 218.974 241.513 219.938Z" fill="#333333"/>
<path d="M225.71 128.478C225.719 128.762 225.695 129.047 225.641 129.326C225.51 130.13 225.351 130.932 225.168 131.727C225.064 132.068 225.022 132.428 225.044 132.786C225.099 133.25 225.371 133.652 225.551 134.082C226.27 135.8 225.496 137.917 226.197 139.653C226.362 140.062 226.606 140.433 226.751 140.851C227.067 141.761 226.887 142.77 226.994 143.732C227.107 144.412 227.262 145.083 227.458 145.741C227.965 147.876 227.125 150.154 227.615 152.299C228.035 154.134 228.455 155.985 228.484 157.87C228.507 159.182 228.339 160.497 228.484 161.803C228.629 163.109 229.133 164.453 230.174 165.149C230.997 165.697 232.012 165.768 232.986 165.768C234.855 165.805 236.733 165.746 238.6 165.591C240.467 165.437 242.476 165.112 243.791 163.694C243.29 159.507 242.835 155.013 244.681 151.281C245.226 150.179 245.974 149.142 246.168 147.91C246.215 147.601 246.229 147.276 246.29 146.963C246.375 146.597 246.495 146.241 246.649 145.902L250.302 137.019C250.495 136.543 250.688 136.066 250.881 135.59C251.513 134.042 252.148 132.495 252.693 130.919C253.328 129.063 253.832 127.156 254.316 125.25C254.606 124.105 254.896 122.944 254.867 121.759C254.816 120.709 254.587 119.678 254.189 118.716C253.971 118.156 253.722 117.605 253.464 117.067C246.224 115.245 238.773 114.565 231.348 115.046C230.167 115.072 228.995 115.28 227.87 115.665C227.098 115.954 226.402 116.436 225.841 117.07C225.586 117.365 225.377 117.702 225.22 118.066C224.786 119.082 224.812 120.248 224.844 121.363C224.904 123.458 224.971 125.581 225.513 127.593C225.607 127.88 225.673 128.176 225.71 128.478Z" fill="#333333"/>
<path d="M230.785 215.645C231.883 216.533 233.173 217.112 234.536 217.329C235.736 217.517 237.055 217.381 238.014 216.576C239.104 215.648 239.464 214.101 239.788 212.652L240.203 210.724C240.353 210.031 240.493 209.338 240.617 208.638C240.934 206.792 241.031 204.911 240.907 203.039C241.89 203.448 242.481 204.698 242.545 205.825C242.609 206.951 242.284 208.053 241.985 209.136C241.866 209.661 241.685 210.168 241.446 210.644C241.269 210.953 241.04 211.238 240.89 211.572C240.701 212.065 240.593 212.588 240.571 213.119C240.347 214.857 240.024 216.577 239.603 218.272L238.959 221.095L238.896 221.377L238.33 223.753C238.316 223.84 238.289 223.923 238.252 224.001C238.184 224.118 238.093 224.217 237.985 224.292C236.861 225.171 235.54 225.719 234.155 225.878C232.77 226.038 231.369 225.805 230.096 225.202C229.997 225.158 229.906 225.098 229.826 225.022C229.685 224.817 229.622 224.563 229.649 224.311C229.681 223.548 229.541 222.788 229.24 222.095C229.076 221.839 228.942 221.563 228.843 221.271C228.733 220.813 228.91 220.343 229.084 219.907L230.414 216.58C230.562 216.187 230.545 215.985 230.785 215.645Z" fill="#333333"/>
<path d="M233.91 77.1368C233.959 77.874 234.095 78.6018 234.313 79.3032C234.477 79.8082 234.761 80.2585 235.139 80.6092C235.759 79.7148 236.878 79.4084 237.701 78.7523C238.429 78.1797 238.942 77.3596 239.484 76.5859C240.551 75.0632 241.803 73.6829 242.962 72.2283C243.136 72.0085 243.307 71.7888 243.475 71.5629C244.065 70.7966 244.599 69.9833 245.072 69.1303C246.035 67.3631 246.693 65.3298 248.139 63.9897C248.927 63.2624 249.916 62.7796 250.617 61.9533C250.142 61.2074 249.965 60.3037 249.797 59.4186C249.619 58.5641 249.482 57.7005 249.385 56.8312C249.359 56.6022 249.345 56.3701 249.336 56.138C249.336 56.039 249.336 55.9399 249.322 55.8285C249.322 55.1198 249.751 53.9004 249.072 53.5012C248.446 53.1329 247.423 53.1298 246.693 53.1391H246.574C244.868 53.1572 243.204 53.7081 241.788 54.7236C241.467 54.9348 241.186 55.2088 240.959 55.5314C240.58 56.1504 240.559 56.8931 240.588 57.6328C240.588 57.803 240.603 57.9702 240.614 58.1342C240.614 58.2147 240.614 58.2982 240.614 58.3818C240.64 59.205 240.565 60.0871 240.035 60.6565C239.455 61.2755 238.533 61.3034 237.748 61.5664C237.617 61.6097 237.493 61.6593 237.371 61.7119C236.506 62.1288 235.767 62.7969 235.24 63.64C234.649 64.6069 234.23 65.6825 234.006 66.8122C233.784 67.8291 233.647 68.8647 233.594 69.9071C233.443 72.2995 233.675 74.7382 233.91 77.1368Z" fill="#FBBEBE"/>
<path opacity="0.1" d="M240.6 58.1342C240.6 58.2146 240.6 58.2982 240.6 58.3818C241.562 58.7563 243.904 57.704 244.988 57.704C247.139 57.704 247.803 58.1589 249.359 56.8189C249.325 56.4908 249.304 56.1596 249.296 55.8285C249.296 55.1198 249.725 53.9004 249.046 53.5011C248.368 53.1019 247.281 53.1298 246.548 53.139C244.842 53.1572 243.178 53.708 241.762 54.7236C241.441 54.9347 241.16 55.2088 240.933 55.5314C240.478 56.2742 240.551 57.249 240.6 58.1342Z" fill="#187E9E"/>
<path d="M234.643 48.5617C234.643 49.831 234.877 51.0878 235.332 52.2605C235.787 53.4331 236.453 54.4986 237.294 55.3959C238.135 56.2933 239.133 57.0049 240.231 57.4902C241.33 57.9754 242.507 58.2247 243.696 58.2239C246.095 58.2223 248.396 57.2038 250.093 55.3921C251.79 53.5805 252.743 51.1238 252.745 48.5617C252.702 46.0287 251.73 43.6147 250.038 41.8394C248.345 40.0641 246.067 39.0694 243.694 39.0694C241.321 39.0694 239.044 40.0641 237.351 41.8394C235.658 43.6147 234.686 46.0287 234.643 48.5617Z" fill="#FBBEBE"/>
<path d="M249.869 59.9818C250.154 59.7272 250.503 59.5679 250.872 59.5238C251.406 59.5238 251.843 59.9911 252.064 60.5079C252.284 61.0248 252.354 61.6004 252.542 62.1328C252.8 62.8522 253.27 63.4626 253.881 63.8721C254.307 64.1568 254.814 64.3549 255.107 64.8005C255.568 65.4969 255.287 66.4687 254.899 67.2145C253.449 69.9999 250.841 71.8135 248.316 73.5219L245.475 75.4469C244.336 76.2515 243.158 76.9902 241.945 77.6598C239.974 78.6965 237.843 79.3619 235.884 80.4204C234.982 80.9063 234.098 81.485 233.101 81.6583C232.891 80.9423 232.759 80.203 232.707 79.4548C232.223 74.8403 231.745 70.1268 232.707 65.599C232.887 64.7355 233.139 63.8535 233.707 63.2129C234.079 62.8349 234.505 62.5216 234.968 62.2844C236.118 61.6248 237.3 61.0328 238.51 60.511C239.077 60.2172 239.7 60.0699 240.33 60.0808C240.278 60.586 240.137 61.0761 239.916 61.5262L235.351 72.3768C235.061 73.0577 234.771 73.7695 234.794 74.5185C234.829 75.5831 235.501 76.6199 235.226 77.6443C237.876 73.5142 240.918 69.6873 244.304 66.2242C244.454 66.0918 244.577 65.9287 244.667 65.7445C244.749 65.4548 244.767 65.1484 244.719 64.8501C244.687 64.2806 244.797 63.5193 245.243 63.1386C245.554 62.8724 246.012 62.7951 246.354 62.5629C247.554 61.7552 248.701 60.8422 249.869 59.9818Z" fill="#187E9E"/>
<path opacity="0.1" d="M225.675 117.927C227.927 119.208 230.467 119.834 233.009 120.094C235.551 120.354 238.107 120.245 240.658 120.14C242.594 120.066 244.527 119.982 246.455 119.908C249.087 119.797 251.672 119.571 254.188 118.723C253.971 118.162 253.722 117.612 253.464 117.073C246.223 115.252 238.773 114.571 231.348 115.052C230.166 115.078 228.995 115.287 227.869 115.671C227.098 115.96 226.402 116.442 225.841 117.076C225.8 117.364 225.736 117.649 225.675 117.927Z" fill="#187E9E"/>
<path d="M226.084 87.7243C227.087 91.3422 226.4 95.3006 225.774 99.0113C225.4 99.2125 225.284 99.7479 225.365 100.187C225.49 100.615 225.651 101.029 225.846 101.425C225.943 101.625 225.997 101.845 226.002 102.07C226.007 102.295 225.963 102.518 225.875 102.722C225.785 102.892 225.643 103.032 225.551 103.186C225.428 103.455 225.367 103.751 225.371 104.05C225.287 105.452 225.209 106.879 225.562 108.228C225.768 109.014 226.119 109.831 225.887 110.605C225.751 111.072 225.411 111.468 225.362 111.957C225.313 112.446 225.6 112.954 225.768 113.446C226.165 114.603 225.951 115.996 225.675 117.194C227.927 118.475 230.467 119.1 233.009 119.36C235.551 119.62 238.107 119.512 240.658 119.41L246.455 119.174C249.107 119.063 251.716 118.834 254.246 117.971C254.49 116.114 254.696 114.056 253.719 112.499C253.528 112.25 253.374 111.971 253.264 111.672C253.09 111.035 253.467 110.388 253.588 109.735C253.835 108.401 253.009 107.148 252.278 106.021C252.17 105.871 252.086 105.702 252.029 105.523C251.896 105.009 252.185 104.443 252.191 103.926C252.194 103.776 252.162 103.627 252.098 103.493C251.991 103.276 251.791 103.128 251.681 102.911C251.568 102.63 251.534 102.321 251.583 102.02C251.716 100.086 251.934 98.1623 252.238 96.2476C252.267 96.0743 252.296 95.8979 252.333 95.7246C252.388 95.4597 252.478 95.2044 252.6 94.9663C252.768 94.6568 253.014 94.4062 253.18 94.0936C253.261 93.9191 253.303 93.7268 253.303 93.5319C253.303 93.3369 253.261 93.1446 253.18 92.9701C253.014 92.6452 253.469 92.3666 253.6 92.0417C253.662 91.7819 253.676 91.5117 253.641 91.2463C253.691 90.797 253.852 90.37 254.107 90.0083C254.423 89.4729 254.742 88.9437 255.067 88.4145C256.51 86.0273 258.011 83.6824 259.568 81.3798C260.327 80.2719 261.094 79.1742 261.867 78.0869C262.49 77.211 263.13 76.3197 263.443 75.2705C263.498 75.0881 263.542 74.902 263.574 74.7134C263.747 73.7063 263.61 72.6665 263.185 71.7486C262.814 70.9563 262.249 70.2971 261.754 69.5821C261.203 68.7899 260.73 67.9233 260.098 67.2053C259.467 66.4873 258.614 65.9116 257.69 65.9116C257.154 65.9116 256.53 66.0726 256.156 65.664C256.02 65.5155 255.948 65.3174 255.809 65.1781C255.414 64.7789 254.771 65.0512 254.298 65.336L245.235 70.8046L243.765 71.6959C243.498 71.8662 243.226 72.0333 242.959 72.2066C241.693 72.9918 240.479 73.8708 239.327 74.8372C237.646 76.2733 235.788 77.5979 234.325 79.2815C234.188 79.4362 234.052 79.591 233.922 79.7612C233.657 77.7929 233.393 75.8214 233.13 73.8469C233.033 73.2795 232.998 72.7021 233.026 72.1261C233.096 71.5593 233.227 71.0028 233.414 70.4673C233.472 70.2785 233.536 70.0835 233.594 69.8916L234.571 66.7627C235.049 65.2307 235.559 63.6369 236.64 62.5073C236.902 62.2684 237.143 62.0042 237.359 61.7181V61.7026C237.461 61.5592 237.53 61.3925 237.56 61.2158C237.591 61.039 237.583 60.8571 237.536 60.6844L229.901 63.2284C229.542 63.3491 229.18 63.4698 228.835 63.6276C228.418 63.8215 228.028 64.0745 227.675 64.3797C227.1 64.8677 226.653 65.5066 226.379 66.234C226.104 66.9614 226.01 67.7524 226.107 68.5299C226.183 69.0374 226.351 69.5264 226.449 70.0278C226.623 70.9377 226.898 71.99 226.527 72.8318C226.156 73.6736 225.823 74.4256 225.475 75.221C225.188 75.8274 224.949 76.459 224.762 77.1089C224.556 77.9968 224.473 78.9124 224.516 79.8262C224.561 81.8665 224.891 83.8881 225.496 85.8241C225.678 86.4616 225.904 87.0868 226.084 87.7243Z" fill="#187E9E"/>
<path d="M241.667 92.3078L223.562 90.488L220.4 90.1073L223.307 91.206L241.667 92.3078Z" fill="#333333"/>
<path d="M242.072 93.2425V91.7879L222.881 90.7758L221.948 91.6331L242.072 93.2425Z" fill="#333333"/>
<path d="M242.012 90.4695C241.609 90.355 241.177 90.3766 240.768 90.2745C240.241 90.1383 239.765 89.7917 239.226 89.7205C238.893 89.6952 238.558 89.7213 238.232 89.7979L235.748 90.2621C235.556 90.2962 235.33 90.3611 235.264 90.5561C235.246 90.6449 235.251 90.737 235.278 90.823C235.305 90.909 235.353 90.9857 235.417 91.0451C235.861 91.5496 236.577 91.6208 237.22 91.6641L238.959 91.7755C239.296 91.7666 239.63 91.8474 239.93 92.0107C240.081 92.0972 240.197 92.2388 240.257 92.4095C240.317 92.5801 240.318 92.7683 240.258 92.9392C240.164 93.1055 240.026 93.238 239.861 93.3198C239.17 93.7256 238.376 93.886 237.594 93.7779C236.964 93.6496 236.346 93.4611 235.748 93.2146C234.223 92.6939 232.614 92.5128 231.02 92.6823C230.609 92.7256 230.125 92.8525 229.977 93.2672C229.938 93.413 229.932 93.5667 229.962 93.7151C229.991 93.8635 230.054 94.0019 230.145 94.1183C230.762 95.0468 231.994 95.0716 233.043 95.3191C234.027 95.5596 234.936 96.0634 235.687 96.783C235.458 97.2875 235.649 97.8848 235.878 98.3892C236.14 98.9664 236.452 99.5165 236.809 100.033C237 100.353 237.27 100.612 237.588 100.782C237.799 100.861 238.02 100.901 238.243 100.902C240.394 101.044 242.552 100.918 244.675 100.528C244.904 100.511 245.121 100.414 245.293 100.252C245.402 100.094 245.471 99.9088 245.493 99.7139C245.713 98.5584 245.906 97.3968 246.072 96.229C246.177 95.4925 246.22 94.7187 245.881 94.041C245.617 93.5086 245.2 93.3353 244.774 92.9763C243.823 92.1778 243.232 90.8161 242.012 90.4695Z" fill="#FBBEBE"/>
<path d="M218.629 66.4346L223.125 90.2404C223.158 90.4193 223.152 90.604 223.106 90.7798C223.061 90.9556 222.977 91.1175 222.863 91.2526C222.748 91.3877 222.605 91.4923 222.446 91.5578C222.286 91.6234 222.115 91.6481 221.945 91.63L205 89.8443C204.767 89.8205 204.548 89.7174 204.375 89.5501C204.202 89.3829 204.083 89.1605 204.038 88.9158L199.884 66.8927C199.852 66.7236 199.856 66.549 199.895 66.3817C199.934 66.2143 200.008 66.0583 200.11 65.9248C200.212 65.7913 200.341 65.6837 200.487 65.6097C200.633 65.5357 200.792 65.4972 200.954 65.4969H217.559C217.812 65.4979 218.056 65.5918 218.25 65.7626C218.445 65.9335 218.579 66.1708 218.629 66.4346Z" fill="#333333"/>
<path d="M210.197 94.759C209.13 94.0286 208.812 92.5647 208.316 91.3206C207.922 90.4044 207.468 89.5191 206.957 88.6714C206.525 87.91 206.087 86.9847 206.435 86.1738C206.706 85.6566 207.152 85.2693 207.681 85.0906C208.161 84.8488 208.7 84.7783 209.22 84.8894C209.8 85.0596 210.232 85.5734 210.626 86.0624L212.023 87.7924C212.661 88.5847 213.316 89.3894 214.157 89.9248C214.666 90.229 215.206 90.4729 215.765 90.6521C216.768 91.007 217.783 91.3164 218.809 91.5805C219.398 91.7015 219.974 91.8914 220.525 92.1469C220.636 92.1902 220.738 92.2568 220.824 92.343C220.911 92.4291 220.981 92.5329 221.029 92.6483C221.053 92.7907 221.049 92.9367 221.019 93.0776C220.988 93.2185 220.932 93.3514 220.852 93.4684C220.499 94.1741 220.096 95.607 219.354 95.8577C218.657 96.0434 217.946 96.1625 217.229 96.2136C216.522 96.294 215.965 95.9846 215.328 95.6998C214.527 95.3731 213.671 95.2267 212.815 95.2696C212.061 95.2666 210.78 95.3811 210.197 94.759Z" fill="#FBBEBE"/>
<path d="M219.475 91.531C219.475 91.531 218.849 96.1114 214.838 95.6193C214.838 95.6193 216.962 96.5261 216.739 97.0306C216.516 97.5351 221.667 96.0464 221.667 96.0464L221.933 93.6572C221.933 93.6572 222.104 92.3419 221.933 92.3047C221.762 92.2676 219.475 91.531 219.475 91.531Z" fill="#187E9E"/>
<path opacity="0.1" d="M219.475 91.531C219.475 91.531 218.849 96.1114 214.838 95.6193C214.838 95.6193 216.962 96.5261 216.739 97.0306C216.516 97.5351 221.667 96.0464 221.667 96.0464L221.933 93.6572C221.933 93.6572 222.104 92.3419 221.933 92.3047C221.762 92.2676 219.475 91.531 219.475 91.531Z" fill="#187E9E"/>
<path opacity="0.1" d="M237.942 72.414C237.549 72.6269 237.225 72.9626 237.015 73.3765C236.68 73.9461 236.426 74.5657 236.261 75.2148C236.064 76.004 235.971 76.8861 235.426 77.4555" fill="#187E9E"/>
<path opacity="0.1" d="M254.745 85.0813C254.452 86.1945 254.573 87.3855 255.084 88.4052C256.528 86.018 258.028 83.6731 259.585 81.3706C260.333 80.2688 261.094 79.1742 261.867 78.0869C262.49 77.211 263.13 76.3197 263.443 75.2706C263.498 75.0882 263.542 74.9021 263.574 74.7135C263.187 74.1088 262.612 73.6701 261.951 73.4755C260.899 76.7313 258.232 79.0649 256.328 81.8472C255.609 82.806 255.072 83.9043 254.745 85.0813Z" fill="#187E9E"/>
<path opacity="0.1" d="M241.325 101.738L247.629 101.967C248.168 101.985 248.832 102.1 249 102.645C249.052 102.818 249.041 103.007 249.093 103.177C249.27 103.796 250.038 103.864 250.638 103.861C251.159 103.861 251.681 103.883 252.2 103.926C252.202 103.776 252.171 103.627 252.107 103.493C252 103.276 251.8 103.128 251.69 102.911C251.577 102.63 251.543 102.321 251.591 102.02C251.725 100.086 251.943 98.1623 252.246 96.2476C252.275 96.0743 252.304 95.8979 252.342 95.7246C251.812 95.4367 251.275 95.1644 250.698 95.2294C250.18 95.2882 249.704 95.6162 249.185 95.5853C248.284 95.5389 247.664 94.4649 246.765 94.403C246.569 94.4193 246.372 94.3941 246.185 94.3288C245.896 94.174 245.855 93.7717 245.71 93.4715C245.493 93.0289 244.884 92.9206 244.429 93.0351C244.441 94.0527 244.379 95.0697 244.246 96.0774C244.201 96.5199 244.104 96.9546 243.956 97.371C243.785 97.7925 243.57 98.1921 243.316 98.5626C242.649 99.6303 242 100.673 241.325 101.738Z" fill="#187E9E"/>
<path d="M262.281 73.0979C263.403 73.4074 264.197 74.5216 264.525 75.7069C264.852 76.8922 264.794 78.1518 264.765 79.3836C264.653 83.9634 264.944 88.5444 265.635 93.0661C265.965 95.2325 266.388 97.3989 266.264 99.5993C266.194 100.788 265.942 102.013 265.226 102.926C264.101 104.369 262.142 104.663 260.385 104.591C257.232 104.458 254.136 103.474 250.98 103.493C250.38 103.493 249.614 103.422 249.435 102.812C249.383 102.639 249.394 102.453 249.342 102.28C249.177 101.735 248.513 101.62 247.974 101.599L241.667 101.373C242.342 100.308 242.991 99.262 243.667 98.1974C243.92 97.8259 244.136 97.4264 244.31 97.0058C244.456 96.5879 244.554 96.1524 244.6 95.7091C244.734 94.7025 244.794 93.6864 244.78 92.6699C245.235 92.5554 245.843 92.6699 246.061 93.1063C246.209 93.4158 246.255 93.8088 246.539 93.9636C246.726 94.0297 246.923 94.0539 247.119 94.0347C248.017 94.0966 248.641 95.1737 249.539 95.2201C250.058 95.251 250.536 94.9106 251.052 94.8642C251.87 94.7744 252.6 95.3501 253.351 95.7029C253.965 95.9891 254.627 96.1369 255.297 96.1369C255.967 96.1369 256.63 95.9891 257.243 95.7029C257.429 95.6162 257.632 95.3717 257.481 95.2263C257.38 95.1303 257.212 95.2046 257.09 95.1396C256.858 95.0189 257.026 94.6537 257.157 94.4154C257.522 93.7284 257.264 92.868 256.91 92.1624C256.557 91.4567 256.104 90.7728 256.096 89.9959C256.116 89.7437 256.116 89.49 256.096 89.2377C255.982 88.8766 255.803 88.5431 255.568 88.2566C254.922 87.2477 254.829 85.9138 255.11 84.7254C255.424 83.5452 255.946 82.44 256.649 81.4696C258.562 78.6904 261.229 76.3568 262.281 73.0979Z" fill="#187E9E"/>
<path opacity="0.1" d="M245.223 70.8139L243.754 71.7052C244.204 71.9275 244.666 72.1238 245.136 72.2932C248.446 73.4816 247.267 75.1281 250.759 75.0786C253.139 75.0507 255.855 74.8558 257.519 76.6694C258.307 77.5236 258.702 78.6934 259.075 79.8231C259.246 80.3337 259.417 80.8506 259.586 81.3705C260.333 80.2687 261.094 79.1742 261.867 78.0868C262.49 77.211 263.13 76.3197 263.444 75.2705C263.784 74.1046 263.692 72.8437 263.186 71.7485C262.815 70.9562 262.249 70.297 261.754 69.5821C261.203 68.7898 260.731 67.9233 260.099 67.2052C259.467 66.4872 258.615 65.9116 257.69 65.9116C257.154 65.9116 256.53 66.0725 256.157 65.664C256.02 65.5154 255.948 65.3174 255.809 65.1781C255.415 64.7788 254.771 65.0512 254.299 65.3359L245.223 70.8139Z" fill="#187E9E"/>
<path d="M236.461 41.4343C236.508 40.9733 236.615 40.5214 236.777 40.0911C236.928 39.7605 237.123 39.455 237.357 39.1843C238.12 38.2635 239.057 37.5249 240.106 37.0167C241.154 36.5085 242.292 36.2421 243.444 36.2349C243.641 36.2236 243.839 36.2573 244.023 36.3339C244.069 36.3569 244.113 36.3849 244.154 36.4175C245.812 35.2259 247.739 34.0499 249.536 33.5856C250.785 33.2743 252.087 33.2934 253.328 33.6414C254.835 34.1242 255.357 35.4085 256.003 36.8105C257.037 39.0643 258.606 40.9894 260.554 42.3937C261.809 43.2943 263.293 44.0742 263.896 45.5535C264.458 46.9339 264.075 48.5153 263.945 50.0164C263.788 52.0423 264.103 54.0783 264.861 55.9429C265.62 57.8075 266.799 59.4428 268.293 60.703C270.006 62.1173 272.293 63.3058 272.658 65.5836C272.919 67.2084 272.064 68.762 271.417 70.2569C270.055 73.4198 269.588 77.276 271.188 80.3059C271.644 81.1694 272.258 81.9555 272.502 82.9087C272.928 84.6016 272.02 86.4462 270.661 87.4303C269.302 88.4145 267.594 88.6683 265.954 88.6683C264.759 88.6683 263.467 88.4764 262.62 87.582C262.041 86.9816 261.768 86.146 261.501 85.3444C260.808 83.2564 260.116 81.1684 259.426 79.0803C259.049 77.9538 258.655 76.7839 257.87 75.9298C256.206 74.1162 253.487 74.308 251.11 74.339C247.615 74.3854 248.791 72.7389 245.487 71.5536C243.542 70.8542 241.429 69.6626 240.977 67.5303C240.533 65.4443 241.87 63.4574 243.046 61.7274C243.928 60.4378 244.761 59.1122 245.548 57.7505C246.31 56.4258 247.044 55.0331 247.255 53.495C247.606 50.9386 241.8 49.5119 240.93 47.101C240.682 46.4202 240.472 45.7235 240.304 45.015C239.887 44.9841 239.499 44.9408 239.229 44.9284C238.119 44.8758 236.867 44.4115 236.487 43.2943C236.281 42.7032 236.359 42.0532 236.461 41.4343Z" fill="#333333"/>
<g opacity="0.1">
<path opacity="0.1" d="M246.235 35.4859C246.05 35.4093 245.853 35.3756 245.655 35.3869H245.574C246.807 34.5585 248.147 33.9257 249.551 33.5083C249.658 33.4804 249.774 33.4587 249.887 33.4371C248.656 34.0418 247.478 34.7605 246.365 35.5849C246.324 35.5481 246.281 35.515 246.235 35.4859Z" fill="#187E9E"/>
<path opacity="0.1" d="M236.461 41.36C236.509 40.9001 236.615 40.4492 236.777 40.0199C236.928 39.6883 237.123 39.3818 237.357 39.11C238.586 37.6291 240.25 36.6364 242.075 36.2937C241.119 36.7895 240.265 37.4839 239.562 38.3363C239.329 38.6081 239.134 38.9146 238.983 39.2462C238.821 39.6755 238.715 40.1263 238.667 40.5863C238.528 41.1973 238.535 41.8358 238.687 42.4432C239.067 43.5574 240.319 44.0247 241.429 44.0742C241.699 44.0742 242.087 44.1299 242.504 44.1639C242.673 44.8713 242.882 45.5669 243.13 46.2468C244 48.6577 249.797 50.0844 249.455 52.6408C249.244 54.1883 248.51 55.5748 247.748 56.8963C246.986 58.2178 246.128 59.5826 245.246 60.8732C244.07 62.6032 242.733 64.587 243.177 66.6792C243.62 68.7713 245.742 70.0062 247.687 70.7025C250.997 71.8941 249.815 73.5405 253.31 73.4879C255.687 73.457 258.406 73.2651 260.07 75.0787C260.855 75.936 261.249 77.1027 261.626 78.2324C262.316 80.3183 263.008 82.4053 263.701 84.4933C263.968 85.298 264.252 86.1305 264.82 86.7309C265.667 87.6253 266.959 87.811 268.154 87.8172C268.833 87.8245 269.512 87.7696 270.183 87.6532C268.913 88.3867 267.406 88.5816 265.951 88.5816C264.757 88.5816 263.464 88.3898 262.617 87.4953C262.038 86.8949 261.765 86.0624 261.499 85.2577C260.805 83.1697 260.113 81.0827 259.423 78.9968C259.046 77.8672 258.652 76.7004 257.867 75.8431C256.203 74.0295 253.484 74.2214 251.107 74.2524C247.612 74.2988 248.788 72.6523 245.484 71.467C243.539 70.7675 241.426 69.576 240.974 67.4436C240.53 65.3577 241.867 63.3677 243.044 61.6376C243.925 60.3481 244.758 59.0225 245.545 57.6607C246.307 56.3392 247.041 54.9434 247.252 53.4053C247.603 50.8489 241.797 49.4221 240.928 47.0112C240.679 46.3313 240.47 45.6357 240.301 44.9284C239.884 44.8943 239.496 44.851 239.226 44.8386C238.116 44.7891 236.864 44.3218 236.484 43.2076C236.332 42.6034 236.324 41.9683 236.461 41.36Z" fill="#187E9E"/>
</g>
</g>
<defs>
<linearGradient id="paint0_linear" x1="123.438" y1="226.396" x2="123.438" y2="17.3096" gradientUnits="userSpaceOnUse">
<stop stop-color="#808080" stop-opacity="0.25"/>
<stop offset="0.54" stop-color="#808080" stop-opacity="0.12"/>
<stop offset="1" stop-color="#808080" stop-opacity="0.1"/>
</linearGradient>
<linearGradient id="paint1_linear" x1="-64225.1" y1="157432" x2="-64225.1" y2="36343.2" gradientUnits="userSpaceOnUse">
<stop stop-color="#808080" stop-opacity="0.25"/>
<stop offset="0.54" stop-color="#808080" stop-opacity="0.12"/>
<stop offset="1" stop-color="#808080" stop-opacity="0.1"/>
</linearGradient>
<clipPath id="clip0">
<rect width="312" height="227" fill="white"/>
</clipPath>
</defs>
</svg>
